<svg width="20" height="21" viewBox="0 0 20 21" fill="none" xmlns="http://www.w3.org/2000/svg">
<g clip-path="url(#clip0_96_193)">
<path d="M9.24522 0.937256H10.4774C10.8072 0.981349 11.1406 1.01446 11.4668 1.06958C13.4821 1.41314 15.3432 2.38054 16.7947 3.83904C18.2462 5.29755 19.217 7.17567 19.5739 9.21579C19.6392 9.58323 19.6754 9.95068 19.7261 10.3181V11.5674C19.6971 11.8062 19.6718 12.0451 19.6391 12.2803C19.3725 14.4108 18.4151 16.3909 16.9174 17.9095C14.3806 20.4816 11.3327 21.4186 7.82818 20.7168C5.50476 20.263 3.43478 18.9394 2.02961 17.0093C1.00242 15.6454 0.338757 14.0364 0.102485 12.3372C-0.133787 10.6379 0.0652563 8.90563 0.68052 7.30698C1.29578 5.70833 2.30656 4.2972 3.61551 3.20929C4.92446 2.12139 6.48755 1.39329 8.15436 1.09523C8.5204 1.04379 8.88643 0.988698 9.24522 0.937256ZM10.6949 9.23786V8.50297C10.6949 7.49985 10.6949 7.48514 11.6915 7.48514H12.467V5.5156C12.4465 5.51329 12.4259 5.51329 12.4054 5.5156C11.6806 5.5156 10.9775 5.48256 10.2672 5.54502C9.86146 5.56271 9.47141 5.70912 9.15214 5.9636C8.83287 6.21808 8.60048 6.56782 8.48775 6.9634C8.39006 7.31174 8.3341 7.67072 8.32105 8.03263C8.29569 8.43314 8.32105 8.83737 8.32105 9.2636H7.20847V11.3212H8.32831V17.0975H10.7093V11.3028H12.3112L12.5141 9.25993L10.6949 9.23786Z" fill="white"/>
<path d="M10.7092 9.23779H12.5213L12.3184 11.2808H10.7165V17.0753H8.33546V11.2991H7.21558V9.24146H8.3282C8.3282 8.81523 8.31008 8.411 8.3282 8.01049C8.34125 7.64858 8.39721 7.2896 8.4949 6.94126C8.60763 6.54568 8.84002 6.19594 9.15929 5.94146C9.47856 5.68698 9.8686 5.54057 10.2743 5.52288C10.9992 5.46042 11.6986 5.49722 12.4126 5.49355C12.4331 5.49124 12.4537 5.49124 12.4742 5.49355V7.463H11.6986C10.7201 7.463 10.702 7.46301 10.702 8.48083L10.7092 9.23779Z" fill="#2F383B"/>
</g>
<defs>
<clipPath id="clip0_96_193">
<rect width="19.726" height="20" fill="white" transform="translate(0 0.937256)"/>
</clipPath>
</defs>
</svg>
