<svg width="20" height="21" viewBox="0 0 20 21" fill="none" xmlns="http://www.w3.org/2000/svg">
<g clip-path="url(#clip0_96_231)">
<path d="M0.0684814 11.0636V9.81581C0.0832501 9.68603 0.100466 9.56623 0.115234 9.43147C0.336521 7.26011 1.25115 5.22142 2.72 3.62541C4.18886 2.02939 6.13159 0.963377 8.25279 0.58946C8.60478 0.529564 8.96167 0.48961 9.31612 0.439697H10.5468C10.5961 0.439697 10.6453 0.46712 10.6946 0.472111C12.2113 0.573794 13.6811 1.0474 14.9774 1.8522C16.2039 2.58116 17.2582 3.57354 18.0661 4.75959C18.8741 5.94564 19.4161 7.29661 19.6542 8.71769C19.7207 9.07956 19.7551 9.44895 19.8044 9.81581V11.0636C19.7773 11.3132 19.7502 11.5378 19.7182 11.7773C19.4338 13.8766 18.5008 15.8305 17.0529 17.3586C15.605 18.8866 13.7168 19.9102 11.6594 20.2825C11.2951 20.3499 10.921 20.3873 10.5592 20.4372H9.32844C9.08229 20.4072 8.83616 20.3823 8.60479 20.3474C6.53806 20.0557 4.61538 19.1084 3.11209 17.6412C1.60879 16.1739 0.601997 14.262 0.235873 12.1792C0.154645 11.8098 0.11771 11.4355 0.0684814 11.0636ZM9.93148 16.9408C10.0053 16.8584 10.0693 16.7961 10.1235 16.7262C10.8619 15.8278 11.6003 14.9443 12.3043 14.0234C13.1031 13.0036 13.7837 11.8941 14.3325 10.7167C14.6845 9.93556 14.9184 9.1345 14.7805 8.26103C14.4729 6.31943 13.4391 4.92935 11.6201 4.25053C9.80105 3.57172 8.12727 3.92363 6.66763 5.20888C5.39014 6.33441 4.45233 8.53552 5.52798 10.7267C6.00415 11.6912 6.55389 12.6166 7.17221 13.4944C8.02547 14.6963 8.94676 15.847 9.93148 16.9408Z" fill="white"/>
<path d="M9.91428 16.8736C8.92895 15.7804 8.00762 14.6296 7.15501 13.4271C6.53669 12.5494 5.98692 11.624 5.51075 10.6595C4.42771 8.4683 5.37291 6.26719 6.6504 5.14166C8.11004 3.85641 9.79366 3.50949 11.6028 4.18331C13.412 4.85713 14.4556 6.25221 14.7633 8.19381C14.9012 9.06728 14.6673 9.87084 14.3153 10.6495C13.7665 11.8269 13.0859 12.9364 12.2871 13.9562C11.5856 14.8771 10.8373 15.7605 10.1063 16.659C10.0546 16.7289 9.99058 16.7938 9.91428 16.8736ZM8.19127 9.0473C8.18786 9.41867 8.29322 9.78269 8.49399 10.0933C8.69476 10.404 8.98191 10.6472 9.31911 10.7923C9.6563 10.9374 10.0284 10.9778 10.3882 10.9084C10.7481 10.8389 11.0795 10.6629 11.3405 10.4023C11.6016 10.1418 11.7806 9.80866 11.8548 9.44498C11.929 9.08129 11.8951 8.70344 11.7574 8.35929C11.6198 8.01514 11.3845 7.72015 11.0813 7.51165C10.7782 7.30316 10.4209 7.19055 10.0546 7.18806C9.56469 7.1854 9.09371 7.37943 8.74455 7.72783C8.39539 8.07623 8.19646 8.55063 8.19127 9.0473Z" fill="black"/>
<path d="M8.0805 8.94739C8.0805 7.72204 8.98382 6.73624 10.0841 6.74123C11.1844 6.74622 12.0705 7.75697 12.0532 9.00229C12.036 10.2476 11.1401 11.2059 10.0398 11.196C8.93953 11.186 8.07557 10.1703 8.0805 8.94739Z" fill="white"/>
</g>
<defs>
<clipPath id="clip0_96_231">
<rect width="19.726" height="20" fill="white" transform="translate(0.0684814 0.437256)"/>
</clipPath>
</defs>
</svg>
