<svg width="20" height="21" viewBox="0 0 20 21" fill="none" xmlns="http://www.w3.org/2000/svg">
<g clip-path="url(#clip0_96_224)">
<path d="M0.0684357 11.5676V10.3182C0.0805481 10.255 0.0935279 10.1919 0.103045 10.1288C0.174854 9.65353 0.211196 9.17041 0.323669 8.7057C1.07118 5.61583 2.86122 3.35016 5.66872 1.9385C7.52799 1.00382 9.50838 0.73376 11.5519 1.08624C14.1111 1.52464 16.1979 2.80653 17.7708 4.89597C19.4146 7.0836 20.0514 9.5676 19.7019 12.2918C19.4563 14.2615 18.617 16.1064 17.2984 17.5746C15.8334 19.2675 13.8394 20.3994 11.6497 20.7811C11.2854 20.8486 10.916 20.8863 10.5483 20.9372H9.31544C9.07492 20.9065 8.83354 20.8811 8.59389 20.8495C6.66756 20.5881 4.86306 19.7466 3.41408 18.4339C1.72964 16.9474 0.602423 14.9178 0.22244 12.6873C0.156686 12.3146 0.119481 11.9394 0.0684357 11.5676ZM9.91848 15.4843C11.5912 15.4843 13.2667 15.4843 14.9452 15.4843C15.7783 15.4843 16.2879 14.9661 16.2888 14.1226V7.76138C16.2888 6.91789 15.7783 6.40145 14.9434 6.40145H4.929C4.08286 6.40145 3.57586 6.91614 3.57586 7.77278C3.57586 9.87712 3.59058 11.9876 3.56808 14.0946C3.55943 14.8618 4.09411 15.5054 4.95236 15.4922C6.60572 15.4659 8.26253 15.4843 9.91848 15.4843Z" fill="white"/>
<path d="M9.91852 15.4845C8.26257 15.4845 6.60576 15.4661 4.94981 15.4924C4.09415 15.5055 3.55947 14.8619 3.56553 14.0947C3.58802 11.9904 3.57244 9.87991 3.57331 7.77294C3.57331 6.9163 4.0803 6.40161 4.92645 6.40161H14.9409C15.7758 6.40161 16.2854 6.91805 16.2862 7.76154V14.1228C16.2862 14.9663 15.7758 15.4836 14.9426 15.4845C13.2688 15.4856 11.5941 15.4856 9.91852 15.4845ZM4.59682 7.95795V14.0754C4.59682 14.4113 4.64267 14.4569 4.97662 14.4569H14.876C15.222 14.4569 15.267 14.4148 15.267 14.0675V7.95795C15.1442 8.05527 15.0603 8.12191 14.9772 8.18943L10.3174 11.9378C10.0396 12.1614 9.82681 12.1614 9.55428 11.943L6.32804 9.34681L4.59682 7.95795ZM14.2652 7.44414H5.648C5.65319 7.50113 5.6878 7.51691 5.71635 7.54058C7.07987 8.63543 8.44166 9.73202 9.80171 10.8304C9.91505 10.9224 9.97476 10.897 10.0777 10.8172C11.1361 9.96145 12.1962 9.10773 13.2581 8.25606L14.2652 7.44414Z" fill="white"/>
<path d="M4.59681 7.95776L6.32717 9.39748L9.5534 12.084C9.82593 12.3102 10.0388 12.3094 10.3165 12.0779C11.8704 10.7861 13.4236 9.49364 14.9763 8.20064L15.2662 7.96127V14.2743C15.2662 14.6338 15.2229 14.6767 14.8751 14.6767C11.5753 14.6767 8.27554 14.6767 4.97576 14.6767C4.6418 14.6767 4.59595 14.6303 4.59595 14.2822V7.95776H4.59681Z" fill="black"/>
<path d="M14.2652 7.44238L13.2581 8.25431C12.1974 9.10774 11.1373 9.96145 10.0777 10.8155C9.97908 10.8953 9.91505 10.9207 9.80171 10.8286C8.44338 9.72793 7.0816 8.63134 5.71635 7.53883C5.6878 7.51516 5.65319 7.49938 5.64799 7.44238H14.2652Z" fill="black"/>
</g>
<defs>
<clipPath id="clip0_96_224">
<rect width="19.726" height="20" fill="white" transform="translate(0.0684814 0.937256)"/>
</clipPath>
</defs>
</svg>
