<svg width="20" height="21" viewBox="0 0 20 21" fill="none" xmlns="http://www.w3.org/2000/svg">
<g clip-path="url(#clip0_96_216)">
<path d="M9.92233 0.942465C4.42701 0.960395 0.0273464 5.44726 0.0699789 11.0406C0.111545 16.5885 4.58582 21.0184 10.0715 20.9414C15.4848 20.8655 19.8067 16.406 19.7949 10.8992C19.7832 5.39242 15.3377 0.920315 9.92233 0.942465Z" fill="white"/>
<path d="M9.92233 0.94243C15.3377 0.925554 19.7832 5.40504 19.7949 10.8992C19.8067 16.3933 15.4848 20.8654 10.0715 20.9414C4.58582 21.0184 0.111545 16.5885 0.0699789 11.0405C0.0273464 5.44196 4.42701 0.955087 9.92233 0.94243ZM13.0633 16.9492C13.1404 16.9293 13.2148 16.9002 13.285 16.8627C14.1795 16.2998 14.9857 15.6101 15.6777 14.8154C15.9292 14.5222 15.9165 14.3524 15.6106 14.1204C14.8063 13.4989 13.9344 12.9682 13.011 12.5382C12.7073 12.399 12.6092 12.4275 12.3801 12.6796C12.1296 12.9549 11.8866 13.2365 11.6426 13.5234C11.6152 13.5669 11.5719 13.5984 11.5217 13.6114C11.4716 13.6243 11.4183 13.6178 11.3729 13.593C10.8837 13.3631 10.3646 13.1848 9.91167 12.8979C8.66397 12.1183 7.74564 10.916 7.32815 9.51537C7.30318 9.45929 7.29823 9.39648 7.31411 9.33725C7.32999 9.27803 7.36576 9.22589 7.41554 9.18945C7.67986 8.95846 7.94844 8.72537 8.19998 8.48594C8.47389 8.23175 8.49841 8.13998 8.34387 7.79508C7.92561 6.88441 7.41305 6.01911 6.81442 5.21308C6.57248 4.88189 6.40302 4.8629 6.09927 5.13186C5.31621 5.83529 4.64181 6.64874 4.09767 7.54616C4.03121 7.6661 4.00791 7.80482 4.03159 7.93958C4.10482 8.35473 4.20486 8.76481 4.33109 9.1673C4.82669 10.6292 5.67081 11.879 6.67587 13.0192C7.97403 14.4874 9.46617 15.6993 11.2738 16.4724C11.8425 16.7191 12.4459 16.8781 13.0633 16.9439V16.9492ZM10.3593 5.75838C13.2008 6.0748 14.743 7.65059 15.0489 10.5047H15.8408C15.8738 7.26983 13.0835 4.84813 10.3636 4.97154L10.3593 5.75838ZM13.7198 10.51C13.7571 8.37308 11.7907 6.95657 10.3625 7.12743V7.93747C11.034 7.94843 11.6739 8.22181 12.1424 8.69795C12.6187 9.18444 12.889 9.83269 12.8981 10.51H13.7198Z" fill="white"/>
<path d="M13.0628 16.9439C12.4464 16.8743 11.8443 16.7118 11.2776 16.4619C9.46573 15.6888 7.97359 14.4769 6.67969 13.0087C5.67037 11.8685 4.82625 10.6186 4.33491 9.15676C4.20868 8.75427 4.10865 8.34419 4.03542 7.92904C4.01175 7.79428 4.03505 7.65556 4.1015 7.53562C4.64564 6.6382 5.32004 5.82475 6.1031 5.12132C6.40686 4.85236 6.57632 4.87135 6.81826 5.20254C7.41688 6.00858 7.92943 6.87387 8.34769 7.78454C8.50223 8.12944 8.47772 8.22121 8.20381 8.4754C7.94695 8.71483 7.6837 8.94792 7.41937 9.17891C7.3696 9.21535 7.33383 9.26747 7.31795 9.3267C7.30206 9.38593 7.30701 9.44875 7.33197 9.50483C7.74946 10.9054 8.6678 12.1078 9.91551 12.8874C10.3685 13.1743 10.8875 13.3525 11.3767 13.5824C11.4221 13.6072 11.4754 13.6138 11.5256 13.6008C11.5757 13.5879 11.619 13.5564 11.6464 13.5128C11.8905 13.2302 12.1335 12.9486 12.3839 12.6691C12.6131 12.417 12.7111 12.3885 13.0149 12.5277C13.9382 12.9576 14.8101 13.4883 15.6144 14.1098C15.9203 14.3419 15.9341 14.5117 15.6815 14.8049C14.9895 15.5995 14.1833 16.2893 13.2888 16.8521C13.2176 16.8918 13.1417 16.9226 13.0628 16.9439Z" fill="#2F383B"/>
<path d="M10.3589 5.75326V4.96643C13.0788 4.84302 15.8691 7.2647 15.8361 10.4996H15.0442C14.7426 7.64547 13.2003 6.06863 10.3589 5.75326Z" fill="#2F383B"/>
<path d="M13.7194 10.5049H12.8977C12.8886 9.82762 12.6182 9.17937 12.142 8.69287C11.6734 8.21674 11.0336 7.94336 10.3621 7.93241V7.12236C11.7903 6.95465 13.7567 8.36802 13.7194 10.5049Z" fill="#2F383B"/>
</g>
<defs>
<clipPath id="clip0_96_216">
<rect width="19.726" height="20" fill="white" transform="translate(0.0684814 0.937256)"/>
</clipPath>
</defs>
</svg>
