<svg width="271" height="281" viewBox="0 0 271 281" fill="none" xmlns="http://www.w3.org/2000/svg">
<g clip-path="url(#clip0_34_1436)">
<path d="M100.559 3.30587C100.559 3.30587 130.46 -2.75493 157.666 3.30587C174.306 7.01147 209.346 15.7987 217.621 35.7155C225.897 55.6323 186.069 72.6243 205.634 92.8291C214.076 101.546 254.581 113.04 252.303 169.578C250.025 226.115 190.677 260.58 108.201 259.044C25.7238 257.508 -21.8922 182.506 10.0054 145.571C41.903 108.637 55.6374 108.528 41.1798 78.4483C26.7222 48.3683 46.7926 11.9139 100.559 3.30587Z" fill="#92E3A9"/>
<path opacity="0.7" d="M100.559 3.30587C100.559 3.30587 130.46 -2.75493 157.666 3.30587C174.306 7.01147 209.346 15.7987 217.621 35.7155C225.897 55.6323 186.069 72.6243 205.634 92.8291C214.076 101.546 254.581 113.04 252.303 169.578C250.025 226.115 190.677 260.58 108.201 259.044C25.7238 257.508 -21.8922 182.506 10.0054 145.571C41.903 108.637 55.6374 108.528 41.1798 78.4483C26.7222 48.3683 46.7926 11.9139 100.559 3.30587Z" fill="white"/>
<path d="M180.885 82.5507H77.7494L64.879 18.5315H193.762L180.885 82.5507Z" fill="#263238"/>
<path d="M74.5494 20.6115L55.5606 149.783H203.074L184.085 20.6115" fill="#92E3A9"/>
<mask id="mask0_34_1436" style="mask-type:luminance" maskUnits="userSpaceOnUse" x="55" y="20" width="149" height="130">
<path d="M74.5558 20.6115L55.5606 149.783H203.081L184.085 20.6115" fill="white"/>
</mask>
<g mask="url(#mask0_34_1436)">
<path opacity="0.3" d="M203.081 149.783H55.5606L63.503 95.7666H195.138L203.081 149.783Z" fill="black" fill-opacity="0.7"/>
</g>
<path d="M74.5494 20.6115L55.5606 149.783H203.074L184.085 20.6115" stroke="#263238" stroke-width="0.64" stroke-linecap="round" stroke-linejoin="round"/>
<path d="M180.073 20.6115H78.5686L60.9686 149.783H197.673L180.073 20.6115Z" fill="#263238"/>
<path d="M170.044 30.4547H114.946L114.306 29.0467C114.134 28.6646 113.856 28.3404 113.504 28.1132C113.152 27.8861 112.741 27.7657 112.322 27.7667H99.8294C99.4899 27.7667 99.1644 27.9016 98.9243 28.1416C98.6843 28.3817 98.5494 28.7073 98.5494 29.0467V30.4803H88.5974C88.4179 30.4807 88.2406 30.5208 88.0784 30.5978C87.9161 30.6748 87.773 30.7867 87.6592 30.9256C87.5454 31.0645 87.4637 31.2269 87.4201 31.4011C87.3765 31.5753 87.3721 31.757 87.407 31.9331L95.5478 72.4131H163.093L171.234 31.9331C171.274 31.7552 171.272 31.5707 171.231 31.3933C171.189 31.2158 171.108 31.05 170.994 30.9081C170.88 30.7662 170.735 30.6517 170.571 30.5733C170.406 30.4948 170.226 30.4543 170.044 30.4547Z" fill="#BFBFBF" stroke="#263238" stroke-width="0.64" stroke-linecap="round" stroke-linejoin="round"/>
<path d="M172.124 33.5587L171.42 37.0531L164.188 73.0147C164.084 73.5547 163.795 74.0417 163.371 74.392C162.947 74.7423 162.415 74.9342 161.865 74.9347H96.7766C96.2267 74.9342 95.6941 74.7423 95.2701 74.392C94.8462 74.0417 94.5575 73.5547 94.4534 73.0147L87.0806 36.2019L86.5494 33.5587C86.5147 33.3841 86.5188 33.2041 86.5613 33.0313C86.6038 32.8584 86.6837 32.6971 86.7954 32.5585C86.9071 32.42 87.0479 32.3076 87.2077 32.2294C87.3676 32.1512 87.5427 32.109 87.7206 32.1059H170.921C171.101 32.1043 171.28 32.143 171.444 32.2192C171.608 32.2954 171.752 32.4071 171.868 32.5462C171.983 32.6854 172.066 32.8484 172.11 33.0235C172.154 33.1987 172.159 33.3815 172.124 33.5587Z" fill="white"/>
<mask id="mask1_34_1436" style="mask-type:luminance" maskUnits="userSpaceOnUse" x="86" y="32" width="87" height="43">
<path d="M172.124 33.5587L171.42 37.0531L164.188 73.0147C164.084 73.5547 163.795 74.0417 163.371 74.392C162.947 74.7423 162.415 74.9342 161.865 74.9347H96.7766C96.2267 74.9342 95.6941 74.7423 95.2701 74.392C94.8462 74.0417 94.5575 73.5547 94.4534 73.0147L87.0806 36.2019L86.5494 33.5587C86.5147 33.3841 86.5188 33.2041 86.5613 33.0313C86.6038 32.8584 86.6837 32.6971 86.7954 32.5585C86.9071 32.42 87.0479 32.3076 87.2077 32.2294C87.3676 32.1512 87.5427 32.109 87.7206 32.1059H170.921C171.101 32.1043 171.28 32.143 171.444 32.2192C171.608 32.2954 171.752 32.4071 171.868 32.5462C171.983 32.6854 172.066 32.8484 172.11 33.0235C172.154 33.1987 172.159 33.3815 172.124 33.5587Z" fill="white"/>
</mask>
<g mask="url(#mask1_34_1436)">
<path opacity="0.4" d="M171.42 37.0531L164.188 73.0147C164.084 73.5547 163.795 74.0417 163.371 74.392C162.947 74.7424 162.415 74.9342 161.865 74.9347H96.7766C96.2267 74.9342 95.6941 74.7424 95.2701 74.392C94.8462 74.0417 94.5575 73.5547 94.4534 73.0147L87.0806 36.2019L171.42 37.0531Z" fill="#92E3A9"/>
</g>
<path d="M172.124 33.5587L171.42 37.0531L164.188 73.0147C164.084 73.5547 163.795 74.0417 163.371 74.392C162.947 74.7423 162.415 74.9342 161.865 74.9347H96.7766C96.2267 74.9342 95.6941 74.7423 95.2701 74.392C94.8462 74.0417 94.5575 73.5547 94.4534 73.0147L87.0806 36.2019L86.5494 33.5587C86.5147 33.3841 86.5188 33.2041 86.5613 33.0313C86.6038 32.8584 86.6837 32.6971 86.7954 32.5585C86.9071 32.42 87.0479 32.3076 87.2077 32.2294C87.3676 32.1512 87.5427 32.109 87.7206 32.1059H170.921C171.101 32.1043 171.28 32.143 171.444 32.2192C171.608 32.2954 171.752 32.4071 171.868 32.5462C171.983 32.6854 172.066 32.8484 172.11 33.0235C172.154 33.1987 172.159 33.3815 172.124 33.5587Z" stroke="#263238" stroke-width="0.64" stroke-linecap="round" stroke-linejoin="round"/>
<path d="M171.023 39.7795H114.601L113.961 38.3779C113.78 37.9932 113.493 37.6683 113.133 37.4415C112.774 37.2146 112.357 37.0955 111.932 37.0979H99.1318C98.7924 37.0979 98.4668 37.2328 98.2267 37.4728C97.9867 37.7129 97.8518 38.0385 97.8518 38.3779V39.8115H87.6118C87.4305 39.8092 87.2509 39.8473 87.0861 39.923C86.9212 39.9987 86.7753 40.1102 86.6589 40.2492C86.5425 40.3883 86.4585 40.5516 86.413 40.7271C86.3675 40.9027 86.3616 41.0862 86.3958 41.2643L94.7158 81.6227H163.881L172.201 41.2643C172.24 41.0871 172.239 40.9035 172.198 40.7267C172.157 40.5499 172.077 40.3844 171.965 40.2422C171.852 40.1001 171.709 39.9848 171.546 39.9048C171.383 39.8247 171.204 39.782 171.023 39.7795Z" fill="#BFBFBF" stroke="#263238" stroke-width="0.64" stroke-linecap="round" stroke-linejoin="round"/>
<path d="M173.148 42.9923L172.444 46.4099L165.026 82.3331C164.912 82.879 164.613 83.3685 164.179 83.7186C163.745 84.0686 163.203 84.2575 162.645 84.2531H95.9958C95.4382 84.2575 94.8964 84.0686 94.4623 83.7186C94.0283 83.3685 93.7289 82.879 93.615 82.3331L86.1718 46.2883L85.4934 42.9923C85.4592 42.8142 85.4651 42.6307 85.5106 42.4551C85.5561 42.2796 85.6401 42.1163 85.7565 41.9772C85.8729 41.8382 86.0188 41.7267 86.1837 41.651C86.3485 41.5753 86.5281 41.5372 86.7094 41.5395H171.932C172.113 41.5372 172.293 41.5753 172.458 41.651C172.622 41.7267 172.768 41.8382 172.885 41.9772C173.001 42.1163 173.085 42.2796 173.131 42.4551C173.176 42.6307 173.182 42.8142 173.148 42.9923Z" fill="white"/>
<mask id="mask2_34_1436" style="mask-type:luminance" maskUnits="userSpaceOnUse" x="85" y="41" width="89" height="44">
<path d="M173.148 42.9923L172.444 46.4099L165.026 82.3331C164.912 82.879 164.613 83.3685 164.179 83.7186C163.745 84.0686 163.203 84.2575 162.645 84.2531H95.9958C95.4382 84.2575 94.8964 84.0686 94.4623 83.7186C94.0283 83.3685 93.7289 82.879 93.615 82.3331L86.1718 46.2883L85.4934 42.9923C85.4592 42.8142 85.4651 42.6307 85.5106 42.4551C85.5561 42.2796 85.6401 42.1163 85.7565 41.9772C85.8729 41.8382 86.0188 41.7267 86.1837 41.651C86.3485 41.5753 86.5281 41.5372 86.7094 41.5395H171.932C172.113 41.5372 172.293 41.5753 172.458 41.651C172.622 41.7267 172.768 41.8382 172.885 41.9772C173.001 42.1163 173.085 42.2796 173.131 42.4551C173.176 42.6307 173.182 42.8142 173.148 42.9923Z" fill="white"/>
</mask>
<g mask="url(#mask2_34_1436)">
<path opacity="0.4" d="M172.444 46.4099L165.026 82.3331C164.912 82.879 164.613 83.3685 164.179 83.7186C163.745 84.0686 163.203 84.2575 162.645 84.2531H95.9958C95.4382 84.2575 94.8964 84.0686 94.4623 83.7186C94.0283 83.3685 93.7289 82.879 93.615 82.3331L86.1718 46.2883L172.444 46.4099Z" fill="#92E3A9"/>
</g>
<path d="M173.148 42.9923L172.444 46.4099L165.026 82.3331C164.912 82.879 164.613 83.3685 164.179 83.7186C163.745 84.0686 163.203 84.2575 162.645 84.2531H95.9958C95.4382 84.2575 94.8964 84.0686 94.4623 83.7186C94.0283 83.3685 93.7289 82.879 93.615 82.3331L86.1718 46.2883L85.4934 42.9923C85.4592 42.8142 85.4651 42.6307 85.5106 42.4551C85.5561 42.2796 85.6401 42.1163 85.7565 41.9772C85.8729 41.8382 86.0188 41.7267 86.1837 41.651C86.3485 41.5753 86.5281 41.5372 86.7094 41.5395H171.932C172.113 41.5372 172.293 41.5753 172.458 41.651C172.622 41.7267 172.768 41.8382 172.885 41.9772C173.001 42.1163 173.085 42.2796 173.131 42.4551C173.176 42.6307 173.182 42.8142 173.148 42.9923Z" stroke="#263238" stroke-width="0.64" stroke-linecap="round" stroke-linejoin="round"/>
<path d="M171.996 49.1043H114.261L113.621 47.7027C113.433 47.3144 113.138 46.9879 112.771 46.7612C112.404 46.5345 111.979 46.4171 111.548 46.4227H98.415C98.2437 46.4176 98.0732 46.4469 97.9134 46.5089C97.7536 46.5709 97.608 46.6644 97.485 46.7837C97.3621 46.9031 97.2643 47.046 97.1976 47.2038C97.1309 47.3617 97.0965 47.5313 97.0966 47.7027V49.1299H86.6454C86.4624 49.1241 86.2804 49.1593 86.1127 49.2329C85.9451 49.3066 85.796 49.4167 85.6763 49.5553C85.5567 49.694 85.4696 49.8576 85.4213 50.0343C85.3731 50.2109 85.3649 50.3961 85.3974 50.5763L93.9286 90.8131H164.713L173.244 50.5763C173.281 50.3942 173.276 50.2062 173.23 50.0263C173.183 49.8464 173.097 49.6794 172.977 49.5377C172.857 49.396 172.706 49.2834 172.536 49.2083C172.366 49.1333 172.181 49.0977 171.996 49.1043Z" fill="#BFBFBF" stroke="#263238" stroke-width="0.64" stroke-linecap="round" stroke-linejoin="round"/>
<path d="M172.93 50.9795H85.711C85.5288 50.9737 85.3476 51.0087 85.1807 51.082C85.0138 51.1553 84.8654 51.265 84.7464 51.403C84.6274 51.5411 84.5407 51.704 84.4928 51.8799C84.4449 52.0558 84.4369 52.2401 84.4694 52.4195L92.7894 91.6451C92.9117 92.1962 93.2205 92.6883 93.6636 93.0381C94.1067 93.3879 94.657 93.5741 95.2214 93.5651H163.426C163.991 93.5741 164.541 93.3879 164.984 93.0381C165.427 92.6883 165.736 92.1962 165.858 91.6451L174.178 52.4195C174.211 52.2396 174.203 52.0546 174.155 51.8783C174.106 51.7019 174.019 51.5386 173.899 51.4005C173.78 51.2623 173.63 51.1527 173.463 51.0799C173.295 51.007 173.113 50.9727 172.93 50.9795Z" fill="white" stroke="#263238" stroke-width="0.64" stroke-linecap="round" stroke-linejoin="round"/>
<path d="M172.975 56.509H113.916L113.244 55.1138C113.046 54.7235 112.743 54.3965 112.368 54.1702C111.994 53.9439 111.563 53.8274 111.125 53.8338H97.6854C97.5115 53.8243 97.3375 53.8503 97.174 53.9103C97.0104 53.9703 96.8609 54.0631 96.7345 54.1829C96.6081 54.3028 96.5074 54.4471 96.4387 54.6072C96.3701 54.7673 96.3348 54.9397 96.335 55.1138V56.541H85.6662C85.4815 56.5317 85.2971 56.564 85.1266 56.6355C84.956 56.707 84.8037 56.8159 84.6809 56.9541C84.558 57.0923 84.4678 57.2563 84.4168 57.4341C84.3658 57.6118 84.3553 57.7987 84.3862 57.9811L93.1094 98.1027H165.525L174.249 57.9811C174.285 57.797 174.279 57.607 174.23 57.4257C174.182 57.2444 174.094 57.0764 173.971 56.9345C173.848 56.7926 173.695 56.6806 173.522 56.6069C173.349 56.5331 173.162 56.4997 172.975 56.509Z" fill="#BFBFBF" stroke="#263238" stroke-width="0.64" stroke-linecap="round" stroke-linejoin="round"/>
<path d="M173.929 58.4931H84.7126C84.5279 58.4838 84.3435 58.5161 84.173 58.5876C84.0024 58.6591 83.8501 58.7679 83.7273 58.9062C83.6044 59.0444 83.5142 59.2084 83.4632 59.3862C83.4122 59.5639 83.4017 59.7508 83.4326 59.9331L91.9382 99.0435C92.0776 99.5934 92.4002 100.079 92.8527 100.421C93.3053 100.763 93.8608 100.941 94.4278 100.925H164.188C164.755 100.941 165.31 100.763 165.763 100.421C166.215 100.079 166.538 99.5934 166.677 99.0435L175.183 59.9331C175.213 59.753 175.203 59.5684 175.154 59.3926C175.104 59.2168 175.016 59.0542 174.896 58.9165C174.776 58.7788 174.627 58.6693 174.46 58.5961C174.293 58.5229 174.111 58.4878 173.929 58.4931Z" fill="white" stroke="#263238" stroke-width="0.64" stroke-linecap="round" stroke-linejoin="round"/>
<path d="M173.948 63.9139H113.57L112.885 62.5187C112.678 62.1253 112.365 61.7972 111.982 61.5712C111.599 61.3452 111.161 61.2301 110.716 61.2387H97.0006C96.6536 61.2213 96.3139 61.3422 96.0559 61.575C95.7979 61.8077 95.6428 62.1333 95.6246 62.4803V63.9011H84.6934C84.5116 63.8998 84.3316 63.9372 84.1653 64.011C83.9991 64.0847 83.8505 64.1929 83.7294 64.3286C83.6083 64.4642 83.5174 64.6241 83.463 64.7976C83.4085 64.9711 83.3916 65.1542 83.4134 65.3347L92.335 105.335H166.332L175.253 65.3347C175.274 65.153 175.255 64.9691 175.198 64.7953C175.141 64.6216 175.047 64.462 174.924 64.3274C174.8 64.1928 174.649 64.0862 174.481 64.0149C174.312 63.9436 174.131 63.9091 173.948 63.9139Z" fill="#BFBFBF" stroke="#263238" stroke-width="0.64" stroke-linecap="round" stroke-linejoin="round"/>
<path d="M174.921 66.0131H83.7206C83.5369 66.0052 83.3537 66.0382 83.1843 66.1097C83.0149 66.1812 82.8634 66.2895 82.741 66.4266C82.6185 66.5638 82.528 66.7265 82.4761 66.9029C82.4241 67.0793 82.412 67.265 82.4406 67.4467L84.5782 77.0467L91.1318 106.442C91.2843 106.998 91.62 107.486 92.0846 107.828C92.5492 108.169 93.1156 108.344 93.6918 108.324H164.988C165.564 108.344 166.13 108.169 166.595 107.828C167.06 107.486 167.395 106.998 167.548 106.442L170.748 92.0227L176.226 67.4531C176.256 67.2687 176.245 67.0799 176.192 66.9007C176.139 66.7215 176.046 66.5565 175.921 66.4181C175.795 66.2797 175.64 66.1714 175.467 66.1013C175.294 66.0311 175.107 66.001 174.921 66.0131Z" fill="white"/>
<mask id="mask3_34_1436" style="mask-type:luminance" maskUnits="userSpaceOnUse" x="82" y="66" width="95" height="43">
<path d="M174.921 66.0131H83.7206C83.5369 66.0052 83.3537 66.0382 83.1843 66.1097C83.0149 66.1812 82.8634 66.2895 82.741 66.4266C82.6185 66.5638 82.528 66.7265 82.4761 66.9029C82.4241 67.0793 82.412 67.265 82.4406 67.4467L84.5782 77.0467L91.1318 106.442C91.2843 106.998 91.62 107.486 92.0846 107.828C92.5492 108.169 93.1156 108.344 93.6918 108.324H164.988C165.564 108.344 166.13 108.169 166.595 107.828C167.06 107.486 167.395 106.998 167.548 106.442L170.748 92.0227L176.226 67.4531C176.256 67.2687 176.245 67.0799 176.192 66.9007C176.139 66.7215 176.046 66.5565 175.921 66.4181C175.795 66.2797 175.64 66.1714 175.467 66.1013C175.294 66.0311 175.107 66.001 174.921 66.0131Z" fill="white"/>
</mask>
<g mask="url(#mask3_34_1436)">
<path opacity="0.4" d="M84.5526 77.0403L91.1062 106.435C91.2587 106.992 91.5944 107.48 92.059 107.821C92.5237 108.163 93.09 108.338 93.6662 108.317H164.988C165.564 108.338 166.13 108.163 166.595 107.821C167.06 107.48 167.395 106.992 167.548 106.435L170.748 92.0163L84.5526 77.0403Z" fill="#92E3A9"/>
</g>
<path d="M174.921 66.0131H83.7206C83.5369 66.0052 83.3537 66.0382 83.1843 66.1097C83.0149 66.1812 82.8634 66.2895 82.741 66.4266C82.6185 66.5638 82.528 66.7265 82.4761 66.9029C82.4241 67.0793 82.412 67.265 82.4406 67.4467L84.5782 77.0467L91.1318 106.442C91.2843 106.998 91.62 107.486 92.0846 107.828C92.5492 108.169 93.1156 108.344 93.6918 108.324H164.988C165.564 108.344 166.13 108.169 166.595 107.828C167.06 107.486 167.395 106.998 167.548 106.442L170.748 92.0227L176.226 67.4531C176.256 67.2687 176.245 67.0799 176.192 66.9007C176.139 66.7215 176.046 66.5565 175.921 66.4181C175.795 66.2797 175.64 66.1714 175.467 66.1013C175.294 66.0311 175.107 66.001 174.921 66.0131Z" stroke="#263238" stroke-width="0.64" stroke-linecap="round" stroke-linejoin="round"/>
<path d="M111.253 109.706L110.447 108.362C110.183 107.974 109.82 107.663 109.396 107.46C108.972 107.258 108.502 107.171 108.034 107.21L93.135 107.895C92.7761 107.88 92.4255 108.006 92.157 108.244C91.8885 108.483 91.7229 108.817 91.695 109.175L91.759 110.583L79.8806 111.127C78.9718 111.165 78.319 111.882 78.5366 112.605L90.0566 151.645L170.466 147.946L178.345 108.029C178.485 107.287 177.775 106.634 176.86 106.679L111.253 109.706Z" fill="#BFBFBF" stroke="#263238" stroke-width="0.64" stroke-linecap="round" stroke-linejoin="round"/>
<path d="M179.497 110.525L178.601 115.12L171.836 149.444C171.669 150.023 171.316 150.531 170.831 150.889C170.346 151.248 169.757 151.437 169.154 151.428L91.6694 154.986C91.0699 155.051 90.4655 154.918 89.9496 154.605C89.4337 154.293 89.035 153.819 88.815 153.258L78.1206 116.97L77.6022 115.21C77.391 114.487 78.0438 113.77 78.9526 113.732L178.031 109.175C178.933 109.136 179.644 109.789 179.497 110.525Z" fill="white"/>
<mask id="mask4_34_1436" style="mask-type:luminance" maskUnits="userSpaceOnUse" x="77" y="109" width="103" height="47">
<path d="M179.497 110.525L178.601 115.12L171.836 149.444C171.669 150.023 171.316 150.531 170.831 150.889C170.346 151.248 169.757 151.437 169.154 151.428L91.6694 154.986C91.0699 155.051 90.4655 154.918 89.9496 154.605C89.4337 154.293 89.035 153.819 88.815 153.258L78.1206 116.97L77.6022 115.21C77.391 114.487 78.0438 113.77 78.9526 113.732L178.031 109.175C178.933 109.136 179.644 109.789 179.497 110.525Z" fill="white"/>
</mask>
<g mask="url(#mask4_34_1436)">
<path opacity="0.4" d="M178.601 115.12L171.836 149.444C171.669 150.023 171.316 150.531 170.831 150.889C170.346 151.248 169.757 151.437 169.154 151.428L91.6694 154.986C91.0699 155.051 90.4655 154.918 89.9496 154.605C89.4337 154.293 89.035 153.819 88.815 153.258L78.1206 116.97L178.601 115.12Z" fill="#92E3A9"/>
</g>
<path d="M179.497 110.525L178.601 115.12L171.836 149.444C171.669 150.023 171.316 150.531 170.831 150.889C170.346 151.248 169.757 151.437 169.154 151.428L91.6694 154.986C91.0699 155.051 90.4655 154.918 89.9496 154.605C89.4337 154.293 89.035 153.819 88.815 153.258L78.1206 116.97L77.6022 115.21C77.391 114.487 78.0438 113.77 78.9526 113.732L178.031 109.175C178.933 109.136 179.644 109.789 179.497 110.525Z" stroke="#263238" stroke-width="0.64" stroke-linecap="round" stroke-linejoin="round"/>
<path d="M112.962 118.615L112.277 117.207C112.042 116.792 111.701 116.446 111.29 116.203C110.879 115.961 110.412 115.83 109.935 115.824L94.7606 115.031C94.3972 114.975 94.0263 115.064 93.7273 115.278C93.4283 115.492 93.2249 115.814 93.1606 116.176L93.0902 117.578L80.9814 116.938C80.0534 116.887 79.3238 117.533 79.4646 118.269L87.2918 158.135L169.295 162.423L181.231 123.594C181.449 122.871 180.789 122.154 179.861 122.109L112.962 118.615Z" fill="#BFBFBF" stroke="#263238" stroke-width="0.64" stroke-linecap="round" stroke-linejoin="round"/>
<path d="M182.159 126.301L180.239 132.624L170.549 164.151C170.316 164.715 169.904 165.186 169.377 165.494C168.85 165.801 168.237 165.927 167.631 165.853L88.6102 161.725C88.0004 161.734 87.4043 161.544 86.9123 161.184C86.4203 160.823 86.0592 160.312 85.8838 159.728L79.1958 125.635L78.2614 120.867C78.1142 120.131 78.8502 119.485 79.7782 119.536L180.789 124.816C181.717 124.867 182.383 125.584 182.159 126.301Z" fill="white"/>
<mask id="mask5_34_1436" style="mask-type:luminance" maskUnits="userSpaceOnUse" x="78" y="119" width="105" height="47">
<path d="M182.159 126.301L180.239 132.624L170.549 164.151C170.316 164.715 169.904 165.186 169.377 165.494C168.85 165.801 168.237 165.927 167.631 165.853L88.6102 161.725C88.0004 161.734 87.4043 161.544 86.9123 161.184C86.4203 160.823 86.0592 160.312 85.8838 159.728L79.1958 125.635L78.2614 120.867C78.1142 120.131 78.8502 119.485 79.7782 119.536L180.789 124.816C181.717 124.867 182.383 125.584 182.159 126.301Z" fill="white"/>
</mask>
<g mask="url(#mask5_34_1436)">
<path opacity="0.4" d="M180.213 132.624L170.524 164.151C170.29 164.715 169.879 165.186 169.352 165.494C168.824 165.801 168.211 165.927 167.605 165.853L88.5846 161.725C87.9748 161.734 87.3787 161.544 86.8867 161.184C86.3947 160.823 86.0336 160.312 85.8582 159.728L79.1702 125.635L180.213 132.624Z" fill="#92E3A9"/>
</g>
<path d="M182.159 126.301L180.239 132.624L170.549 164.151C170.316 164.715 169.904 165.186 169.377 165.494C168.85 165.801 168.237 165.927 167.631 165.853L88.6102 161.725C88.0004 161.734 87.4043 161.544 86.9123 161.184C86.4203 160.823 86.0592 160.312 85.8838 159.728L79.1958 125.635L78.2614 120.867C78.1142 120.131 78.8502 119.485 79.7782 119.536L180.789 124.816C181.717 124.867 182.383 125.584 182.159 126.301Z" stroke="#263238" stroke-width="0.64" stroke-linecap="round" stroke-linejoin="round"/>
<path d="M111.503 128.823L110.761 127.453C110.498 127.046 110.134 126.713 109.704 126.489C109.275 126.265 108.794 126.156 108.309 126.173H92.7638C92.3956 126.133 92.0262 126.238 91.7345 126.467C91.4428 126.695 91.2518 127.028 91.2022 127.396V128.791H78.8374C77.8902 128.791 77.1798 129.469 77.3654 130.199L87.4518 169.476H171.189L181.276 130.199C181.461 129.469 180.751 128.791 179.804 128.791L111.503 128.823Z" fill="#BFBFBF" stroke="#263238" stroke-width="0.64" stroke-linecap="round" stroke-linejoin="round"/>
<path d="M169.641 173.13H89.0006C87.6054 173.13 86.3958 172.356 86.1206 171.287L76.2646 132.996C76.0726 132.266 76.783 131.588 77.7366 131.588H180.905C181.858 131.588 182.569 132.266 182.377 132.996L172.546 171.287C172.271 172.356 171.061 173.13 169.641 173.13Z" fill="white" stroke="#263238" stroke-width="0.64" stroke-linecap="round" stroke-linejoin="round"/>
<path d="M111.157 138.147L110.37 136.784C110.094 136.38 109.719 136.054 109.281 135.835C108.843 135.617 108.357 135.514 107.868 135.536H92.0598C91.6873 135.492 91.3124 135.596 91.0147 135.824C90.7171 136.052 90.5203 136.388 90.4662 136.759V138.147H77.8646C76.8918 138.147 76.1686 138.826 76.3606 139.555L86.6454 178.711H171.996L182.281 139.536C182.473 138.807 181.749 138.128 180.777 138.128L111.157 138.147Z" fill="#BFBFBF" stroke="#263238" stroke-width="0.64" stroke-linecap="round" stroke-linejoin="round"/>
<path d="M170.447 182.416H88.1942C86.7734 182.416 85.5446 181.642 85.263 180.573L75.2342 142.403C75.0486 141.674 75.7718 140.995 76.7382 140.995H181.903C182.869 140.995 183.593 141.674 183.407 142.403L173.378 180.573C173.097 181.667 171.868 182.416 170.447 182.416Z" fill="white" stroke="#263238" stroke-width="0.64" stroke-linecap="round" stroke-linejoin="round"/>
<path d="M187.157 226.551H71.4838L46.1654 154.749H212.476L187.157 226.551Z" fill="#92E3A9"/>
<mask id="mask6_34_1436" style="mask-type:luminance" maskUnits="userSpaceOnUse" x="46" y="154" width="167" height="73">
<path d="M187.157 226.557H71.4838L46.1654 154.755H212.476L187.157 226.557Z" fill="white"/>
</mask>
<g mask="url(#mask6_34_1436)">
<path opacity="0.3" d="M187.157 226.551H71.4838L46.1654 154.749H212.476L187.157 226.551Z" fill="black" fill-opacity="0.7"/>
</g>
<path d="M187.157 226.551H71.4838L46.1654 154.749H212.476L187.157 226.551Z" stroke="#263238" stroke-width="0.64" stroke-linecap="round" stroke-linejoin="round"/>
<path d="M210.274 145.303H48.367L46.1654 154.749H212.476L210.274 145.303Z" fill="#92E3A9" stroke="#263238" stroke-width="0.64" stroke-linecap="round" stroke-linejoin="round"/>
<path d="M89.1734 187.645L87.5478 202.973H171.087L169.468 187.645H165.781L166.831 198.589H91.8038L92.8598 187.645H89.1734Z" fill="#BFBFBF" stroke="#263238" stroke-width="0.64" stroke-linecap="round" stroke-linejoin="round"/>
<path d="M170.46 206.5H88.1814L87.5478 202.973H171.087L170.46 206.5Z" fill="#757575" stroke="#263238" stroke-width="0.64" stroke-linecap="round" stroke-linejoin="round"/>
<path d="M165.781 187.645L165.263 191.709L165.781 198.589H166.831L165.781 187.645Z" fill="#757575" stroke="#263238" stroke-width="0.64" stroke-linecap="round" stroke-linejoin="round"/>
<path d="M92.8598 187.645L93.3718 191.709L92.8598 198.589H91.8038L92.8598 187.645Z" fill="#757575" stroke="#263238" stroke-width="0.64" stroke-linecap="round" stroke-linejoin="round"/>
<path d="M156.233 179.959H102.402L99.8358 166.948H158.805L156.233 179.959Z" fill="white" stroke="#263238" stroke-width="0.64" stroke-linecap="round" stroke-linejoin="round"/>
<path d="M132.924 54.1155L132.399 52.6115C132.229 52.1831 131.944 51.8097 131.576 51.532C131.208 51.2544 130.771 51.0832 130.313 51.0371L116.079 49.2003C115.725 49.1326 115.359 49.2077 115.06 49.4092C114.762 49.6107 114.555 49.9221 114.485 50.2755L114.3 51.7155L102.959 50.2563C102.77 50.2168 102.575 50.2203 102.388 50.2667C102.201 50.313 102.027 50.401 101.879 50.5241C101.731 50.6471 101.612 50.8021 101.532 50.9773C101.452 51.1526 101.413 51.3437 101.417 51.5363L105.455 93.2259L182.255 103.127L196.732 63.8243C196.784 63.6395 196.794 63.4452 196.761 63.256C196.728 63.0669 196.652 62.8876 196.54 62.7314C196.428 62.5753 196.283 62.4463 196.114 62.3541C195.946 62.2619 195.759 62.2088 195.567 62.1987L132.924 54.1155Z" fill="white"/>
<mask id="mask7_34_1436" style="mask-type:luminance" maskUnits="userSpaceOnUse" x="101" y="49" width="96" height="55">
<path d="M132.924 54.1155L132.399 52.6115C132.229 52.1831 131.944 51.8097 131.576 51.532C131.208 51.2544 130.771 51.0832 130.313 51.0371L116.079 49.2003C115.725 49.1326 115.359 49.2077 115.06 49.4092C114.762 49.6107 114.555 49.9221 114.485 50.2755L114.3 51.7155L102.959 50.2563C102.77 50.2168 102.575 50.2203 102.388 50.2667C102.201 50.313 102.027 50.401 101.879 50.5241C101.731 50.6471 101.612 50.8021 101.532 50.9773C101.452 51.1526 101.413 51.3437 101.417 51.5363L105.455 93.2259L182.255 103.127L196.732 63.8243C196.784 63.6395 196.794 63.4452 196.761 63.256C196.728 63.0669 196.652 62.8876 196.54 62.7314C196.428 62.5753 196.283 62.4463 196.114 62.3541C195.946 62.2619 195.759 62.2088 195.567 62.1987L132.924 54.1155Z" fill="white"/>
</mask>
<g mask="url(#mask7_34_1436)">
<path opacity="0.4" d="M132.924 54.1155L132.399 52.6115C132.229 52.1831 131.944 51.8097 131.576 51.532C131.208 51.2544 130.771 51.0832 130.313 51.0371L116.079 49.2003C115.725 49.1326 115.359 49.2077 115.06 49.4092C114.762 49.6107 114.555 49.9221 114.485 50.2755L114.3 51.7155L102.959 50.2563C102.77 50.2168 102.575 50.2203 102.388 50.2667C102.201 50.313 102.027 50.401 101.879 50.5241C101.731 50.6471 101.612 50.8021 101.532 50.9773C101.452 51.1526 101.413 51.3437 101.417 51.5363L105.455 93.2259L182.255 103.127L196.732 63.8243C196.784 63.6395 196.794 63.4452 196.761 63.256C196.728 63.0669 196.652 62.8876 196.54 62.7314C196.428 62.5753 196.283 62.4463 196.114 62.3541C195.946 62.2619 195.759 62.2088 195.567 62.1987L132.924 54.1155Z" fill="#92E3A9"/>
</g>
<path d="M132.924 54.1155L132.399 52.6115C132.229 52.1831 131.944 51.8097 131.576 51.532C131.208 51.2544 130.771 51.0832 130.313 51.0371L116.079 49.2003C115.725 49.1326 115.359 49.2077 115.06 49.4092C114.762 49.6107 114.555 49.9221 114.485 50.2755L114.3 51.7155L102.959 50.2563C102.77 50.2168 102.575 50.2203 102.388 50.2667C102.201 50.313 102.027 50.401 101.879 50.5241C101.731 50.6471 101.612 50.8021 101.532 50.9773C101.452 51.1526 101.413 51.3437 101.417 51.5363L105.455 93.2259L182.255 103.127L196.732 63.8243C196.784 63.6395 196.794 63.4452 196.761 63.256C196.728 63.0669 196.652 62.8876 196.54 62.7314C196.428 62.5753 196.283 62.4463 196.114 62.3541C195.946 62.2619 195.759 62.2088 195.567 62.1987L132.924 54.1155Z" stroke="#263238" stroke-width="0.64" stroke-linecap="round" stroke-linejoin="round"/>
<path d="M197.468 66.1858L184.361 101.776L183.349 104.515C183.113 105.061 182.7 105.512 182.176 105.795C181.653 106.079 181.05 106.178 180.463 106.077L106.447 96.5282C105.854 96.4762 105.296 96.2265 104.862 95.8191C104.428 95.4117 104.143 94.8703 104.053 94.2818L100.117 53.6418C100.113 53.4492 100.153 53.2581 100.233 53.0829C100.313 52.9076 100.431 52.7526 100.58 52.6296C100.728 52.5065 100.902 52.4186 101.089 52.3722C101.276 52.3258 101.471 52.3223 101.66 52.3618L164.649 60.4834L196.303 64.5602C196.495 64.5703 196.682 64.6234 196.85 64.7156C197.019 64.8079 197.164 64.9368 197.276 65.0929C197.388 65.2491 197.464 65.4284 197.497 65.6176C197.53 65.8068 197.52 66.001 197.468 66.1858Z" fill="white"/>
<mask id="mask8_34_1436" style="mask-type:luminance" maskUnits="userSpaceOnUse" x="100" y="52" width="98" height="55">
<path d="M197.468 66.1858L184.361 101.776L183.349 104.515C183.113 105.061 182.7 105.512 182.176 105.795C181.653 106.079 181.05 106.178 180.463 106.077L106.447 96.5282C105.854 96.4762 105.296 96.2265 104.862 95.8191C104.428 95.4117 104.143 94.8703 104.053 94.2818L100.117 53.6418C100.113 53.4492 100.153 53.2581 100.233 53.0829C100.313 52.9076 100.431 52.7526 100.58 52.6296C100.728 52.5065 100.902 52.4186 101.089 52.3722C101.276 52.3258 101.471 52.3223 101.66 52.3618L164.649 60.4834L196.303 64.5602C196.495 64.5703 196.682 64.6234 196.85 64.7156C197.019 64.8079 197.164 64.9368 197.276 65.0929C197.388 65.2491 197.464 65.4284 197.497 65.6176C197.53 65.8068 197.52 66.001 197.468 66.1858Z" fill="white"/>
</mask>
<g mask="url(#mask8_34_1436)">
<path opacity="0.3" d="M197.468 66.1858L184.361 101.776C175.074 99.581 174.722 93.7954 173.167 90.8002C171.452 87.4978 160.578 85.7442 157.538 85.213C154.498 84.6818 152.649 81.6034 152.649 81.6034C149.909 73.9234 164.207 67.2034 164.207 67.2034C163.925 66.1474 164.341 62.685 164.642 60.4962L196.297 64.573C196.488 64.5826 196.674 64.6349 196.842 64.726C197.01 64.817 197.156 64.9446 197.268 65.0993C197.38 65.254 197.457 65.4319 197.491 65.6199C197.526 65.8079 197.518 66.0013 197.468 66.1858Z" fill="black" fill-opacity="0.7"/>
</g>
<path d="M197.468 66.1858L184.361 101.776L183.349 104.515C183.113 105.061 182.7 105.512 182.176 105.795C181.653 106.079 181.05 106.178 180.463 106.077L106.447 96.5282C105.854 96.4762 105.296 96.2265 104.862 95.8191C104.428 95.4117 104.143 94.8704 104.053 94.2818L100.117 53.6418C100.113 53.4492 100.153 53.2581 100.233 53.0829C100.313 52.9076 100.431 52.7526 100.58 52.6296C100.728 52.5065 100.902 52.4186 101.089 52.3722C101.276 52.3258 101.471 52.3223 101.66 52.3618L164.649 60.4834L196.303 64.5602C196.495 64.5703 196.682 64.6234 196.85 64.7156C197.019 64.8079 197.164 64.9368 197.276 65.0929C197.388 65.2491 197.464 65.4284 197.497 65.6176C197.53 65.8068 197.52 66.001 197.468 66.1858Z" stroke="#263238" stroke-width="0.64" stroke-linecap="round" stroke-linejoin="round"/>
<path d="M114.037 64.5923L115.049 89.7379L124.162 90.9219L125.231 65.8531L114.037 64.5923Z" fill="#92E3A9" stroke="#263238" stroke-width="0.64" stroke-linecap="round" stroke-linejoin="round"/>
<path d="M119.599 87.8947C119.715 87.4499 119.735 86.9856 119.659 86.5323C119.583 86.079 119.412 85.6469 119.157 85.2643C118.64 84.5042 118.017 83.8212 117.308 83.2355C118.365 83.8419 119.534 84.2293 120.745 84.3747C120.745 83.0627 119.465 82.1539 118.37 81.4627C118.621 81.3654 118.89 81.3252 119.158 81.3452C119.426 81.3651 119.686 81.4446 119.919 81.5779C119.935 81.3744 119.902 81.1701 119.823 80.982C119.744 80.7938 119.621 80.6273 119.465 80.4963C119.605 80.6179 119.823 80.4259 119.817 80.2467C119.782 80.0669 119.706 79.8979 119.593 79.7539C119.421 79.3662 119.352 78.9407 119.394 78.5187C119.394 77.0147 119.439 75.5043 119.458 74.0003C119.48 74.1378 119.541 74.2662 119.634 74.3696C119.727 74.473 119.848 74.5471 119.983 74.5827C119.983 73.9875 119.913 73.3923 119.855 72.7971C119.714 71.2931 119.573 69.7827 119.426 68.2787" stroke="#263238" stroke-width="0.64" stroke-linecap="round" stroke-linejoin="round"/>
<path d="M264.361 146.371C264.361 146.371 212.713 100.163 209.423 97.2514C206.133 94.3394 203.727 94.4674 201.954 92.6946C200.181 90.9218 199.292 89.661 192.079 89.7826C184.866 89.9042 175.241 85.9874 173.09 84.5922C170.94 83.197 167.9 84.2146 165.871 83.4274C163.842 82.6402 158.658 83.3314 155.49 83.4274C152.322 83.5234 152.073 80.2914 153.34 76.6178C154.607 72.9442 164.22 70.6722 165.5 71.4274C166.78 72.1826 171.829 70.0386 171.829 70.0386C171.068 67.3762 171.324 60.9186 171.324 60.9186C171.324 60.9186 166.005 58.6402 163.983 57.885C162.425 57.4151 160.792 57.2435 159.17 57.3794C159.17 57.3794 159.81 54.4738 160.815 53.3922C161.82 52.3106 166.639 51.2994 171.324 48.0098C176.009 44.7202 178.921 43.9586 179.644 44.2082C180.367 44.4578 185.596 45.981 186.991 45.981C188.386 45.981 190.409 44.701 192.431 45.0978C194.453 45.4946 198.127 48.6434 199.772 49.021C201.417 49.3986 201.922 49.7442 204.079 49.7442C205.026 49.7442 208.892 52.5666 208.892 52.5666C210.51 52.8757 212.084 53.3853 213.577 54.0834C215.977 55.2226 218.511 60.669 219.65 62.4418C220.789 64.2146 220.93 68.5154 220.93 68.5154C220.93 68.5154 223.97 70.1602 225.109 72.4386C226.249 74.717 268.201 97.2514 268.201 97.2514C268.201 97.2514 274.812 123.165 264.361 146.371Z" fill="white"/>
<path opacity="0.4" d="M227.586 113.456C218.332 105.175 210.652 98.3138 209.449 97.2514C206.153 94.3394 203.753 94.4674 201.98 92.6946C200.207 90.9218 199.317 89.661 192.105 89.7826C184.892 89.9042 175.266 85.9874 173.116 84.5922C170.965 83.197 167.925 84.2146 165.897 83.4274C163.868 82.6402 158.684 83.3314 155.516 83.4274C152.348 83.5234 152.098 80.2914 153.365 76.6178C154.633 72.9442 164.245 70.6722 165.525 71.4274C166.805 72.1826 171.855 70.0386 171.855 70.0386C171.093 67.3762 171.349 60.9186 171.349 60.9186C171.349 60.9186 166.031 58.6402 164.009 57.885C162.45 57.4151 160.818 57.2435 159.196 57.3794C159.196 57.3794 159.836 54.4738 160.841 53.3922C161.845 52.3106 166.665 51.2994 171.349 48.0098C176.034 44.7202 178.946 43.9586 179.669 44.2082C180.393 44.4578 185.621 45.981 187.017 45.981C188.073 45.981 189.5 45.2514 191.017 45.0658C189.788 45.7506 188.937 47.0562 189.167 47.7538C189.532 48.8546 190.562 51.6578 190.62 51.837C190.345 51.5682 183.708 45.0146 179.42 45.3538C175.714 45.6418 171.951 51.8818 172.585 56.4642C173.218 61.0466 171.682 61.0466 172.514 64.4642C173.346 67.8818 174.101 72.6946 172.834 74.5954C171.567 76.4962 169.039 73.117 169.039 73.117C168.09 73.638 167.294 74.3995 166.733 75.3252C166.171 76.2509 165.863 77.3081 165.839 78.3907C165.839 82.0643 169.679 82.3138 171.945 82.6978C174.21 83.0818 182.569 87.6579 188.277 87.9011L193.986 88.1378C193.986 88.1378 190.69 83.6578 192.066 83.4274C193.442 83.197 197.634 83.6066 200.386 87.9074C203.138 92.2082 205.25 93.1618 210.351 95.2738C213.365 96.4834 221.314 105.066 227.586 113.456Z" fill="#92E3A9"/>
<path opacity="0.4" d="M252.879 88.9123C252.105 88.5475 227.279 76.8483 226.031 75.1011C224.783 73.3539 223.247 72.9251 221.852 71.1651C220.457 69.4051 215.778 68.2659 215.145 65.8595C214.511 63.4531 213.749 56.1507 212.585 55.2483C211.627 54.5458 210.612 53.9249 209.551 53.3923L211.433 58.0835C211.433 58.0835 207.145 52.0099 206.127 51.8435C205.109 51.6771 207.228 56.2595 207.042 56.1187C206.857 55.9779 202.21 51.6387 198.319 48.3491C198.781 48.6278 199.278 48.843 199.797 48.9891C201.449 49.3667 201.948 49.7123 204.105 49.7123C205.052 49.7123 208.917 52.5347 208.917 52.5347C210.536 52.8438 212.11 53.3533 213.602 54.0515C216.002 55.1907 218.537 60.6371 219.676 62.4099C220.815 64.1827 220.956 68.4835 220.956 68.4835C220.956 68.4835 223.996 70.1283 225.135 72.4067C225.82 73.7891 240.789 82.2435 252.879 88.9123Z" fill="#92E3A9"/>
<path d="M264.361 146.371C264.361 146.371 212.713 100.163 209.423 97.2514C206.133 94.3394 203.727 94.4674 201.954 92.6946C200.181 90.9218 199.292 89.661 192.079 89.7826C184.866 89.9042 175.241 85.9874 173.09 84.5922C170.94 83.197 167.9 84.2146 165.871 83.4274C163.842 82.6402 158.658 83.3314 155.49 83.4274C152.322 83.5234 152.073 80.2914 153.34 76.6178C154.607 72.9442 164.22 70.6722 165.5 71.4274C166.78 72.1826 171.829 70.0386 171.829 70.0386C171.068 67.3762 171.324 60.9186 171.324 60.9186C171.324 60.9186 166.005 58.6402 163.983 57.885C162.425 57.4151 160.792 57.2435 159.17 57.3794C159.17 57.3794 159.81 54.4738 160.815 53.3922C161.82 52.3106 166.639 51.2994 171.324 48.0098C176.009 44.7202 178.921 43.9586 179.644 44.2082C180.367 44.4578 185.596 45.981 186.991 45.981C188.386 45.981 190.409 44.701 192.431 45.0978C194.453 45.4946 198.127 48.6434 199.772 49.021C201.417 49.3986 201.922 49.7442 204.079 49.7442C205.026 49.7442 208.892 52.5666 208.892 52.5666C210.51 52.8757 212.084 53.3853 213.577 54.0834C215.977 55.2226 218.511 60.669 219.65 62.4418C220.789 64.2146 220.93 68.5154 220.93 68.5154C220.93 68.5154 223.97 70.1602 225.109 72.4386C226.249 74.717 268.201 97.2514 268.201 97.2514" stroke="#263238" stroke-width="0.64" stroke-linecap="round" stroke-linejoin="round"/>
<path d="M171.343 60.9187C171.343 60.9187 171.932 55.9395 171.343 55.2483" stroke="#263238" stroke-width="0.64" stroke-linecap="round" stroke-linejoin="round"/>
<path d="M186.953 48.7267C186.953 48.7267 195.567 56.0163 196.239 56.4643" stroke="#263238" stroke-width="0.64" stroke-linecap="round" stroke-linejoin="round"/>
<path d="M195.042 46.2755C196.226 47.0115 205.775 55.4787 208.898 57.4179" stroke="#263238" stroke-width="0.64" stroke-linecap="round" stroke-linejoin="round"/>
<path d="M220.969 68.4963C220.041 67.9523 217.589 66.7683 217.34 65.8403" stroke="#263238" stroke-width="0.64" stroke-linecap="round" stroke-linejoin="round"/>
<path d="M171.849 70.0387C171.849 70.0387 172.354 72.1059 171.849 73.1171" stroke="#263238" stroke-width="0.64" stroke-linecap="round" stroke-linejoin="round"/>
<path d="M164.252 76.5795C164.252 76.5795 163.074 79.8691 165.858 82.0643" stroke="#263238" stroke-width="0.64" stroke-linecap="round" stroke-linejoin="round"/>
<path d="M175.733 45.3539C174.846 46.284 174.257 47.4588 174.044 48.7267" stroke="#263238" stroke-width="0.64" stroke-linecap="round" stroke-linejoin="round"/>
<path d="M162.601 55.2483C162.88 56.0106 163.318 56.7051 163.885 57.2864C164.452 57.8677 165.135 58.3225 165.89 58.6211" stroke="#263238" stroke-width="0.64" stroke-linecap="round" stroke-linejoin="round"/>
<path d="M200.457 91.2867C198.811 88.9007 197.002 86.6317 195.042 84.4963" stroke="#263238" stroke-width="0.64" stroke-linecap="round" stroke-linejoin="round"/>
<path d="M23.3942 260.055C23.3942 260.055 64.7382 232.88 67.2662 229.373C68.5638 227.482 70.0949 225.761 71.823 224.253C71.823 224.253 73.007 214.122 76.047 208.893C79.087 203.664 80.2646 199.773 81.615 197.072C82.9654 194.371 89.3782 192.349 91.215 191.312C93.0518 190.275 96.2838 188.272 98.1398 188.272C99.5571 188.385 100.936 188.788 102.191 189.456C102.191 189.456 108.437 186.256 111.305 188.272C111.305 188.272 118.396 188.611 120.079 188.439C121.762 188.266 124.303 189.456 124.303 189.456C124.303 189.456 128.521 186.423 131.388 187.6C134.255 188.778 135.625 189.283 135.701 190.973C135.778 192.663 134.991 198.397 134.991 198.397H133.583C133.583 198.397 128.86 204.547 128.354 205.776C127.849 207.005 125.154 213.757 125.154 213.757C125.154 213.757 128.693 211.056 130.914 209.034C133.135 207.011 136.994 203.127 141.045 202.115C145.097 201.104 147.964 203.363 147.964 205.776C147.964 205.776 143.241 209.54 142.204 210.724C141.167 211.908 139.362 214.941 137.327 217.124C135.292 219.306 130.601 228.496 126.517 232.88C122.434 237.264 104.757 246.717 100.687 248.067C100.687 248.067 76.047 265.284 65.2438 279.799C65.2438 279.799 35.8806 279.971 23.3942 260.055Z" fill="white"/>
<path opacity="0.4" d="M103.561 244.355C103.913 244.714 105.353 244.931 107.401 244.995C105.233 246.16 102.997 247.194 100.706 248.093C100.706 248.093 84.591 259.351 72.7126 271.338C76.8022 264.829 84.655 256.707 87.5734 255.018C91.6374 252.65 99.4454 245.008 99.4454 245.008C99.4454 245.008 102.389 243.171 103.561 244.355Z" fill="#92E3A9"/>
<path opacity="0.4" d="M130.901 209.079C132.63 207.38 134.482 205.811 136.444 204.387C134.361 206.674 132.666 209.285 131.426 212.119C130.645 216.362 123.324 225.111 123.324 225.111C125.685 217.52 123.657 215.997 124.322 213.802C124.988 211.607 125.417 206.224 125.417 206.224C125.417 206.224 126.697 204.016 128.047 203.511C129.397 203.005 132.943 194.058 133.602 192.848C134.261 191.639 129.231 189.648 127.881 189.501C126.53 189.354 126.025 191.69 123.324 192.848C120.623 194.007 117.231 196.131 115.983 197.373C114.735 198.615 112.565 204.106 112.425 204.445C112.521 204.061 114.05 197.898 114.447 196.669C114.78 195.645 118.025 193.757 119.228 193.085C117.231 194.013 116.111 192.253 114.447 190.653C112.661 188.938 109.999 188.394 107.087 189.284C104.175 190.173 102.223 192.368 102.21 192.202C102.197 192.035 97.8582 191.274 96.4502 191.69C95.0422 192.106 91.791 193.578 91.791 193.578C91.791 193.578 88.8342 191.875 83.9766 196.669C81.9478 198.672 75.1958 213.949 76.207 212.119C77.2182 210.288 81.6278 204.823 81.903 204.484C81.6086 205.2 72.655 225.296 70.8246 226.576C68.9942 227.856 68.463 232.388 61.8646 236.106C55.6054 239.632 31.4646 254.807 29.071 256.311C40.5206 248.701 65.3206 232.067 67.2406 229.373C68.5382 227.482 70.0693 225.761 71.7974 224.253C71.7974 224.253 72.9814 214.122 76.0214 208.893C79.0614 203.664 80.239 199.773 81.5894 197.072C82.9398 194.371 89.3526 192.349 91.1894 191.312C93.0262 190.275 96.2582 188.272 98.1142 188.272C99.5315 188.385 100.91 188.788 102.165 189.456C102.165 189.456 108.412 186.256 111.279 188.272C111.279 188.272 118.37 188.611 120.053 188.439C121.737 188.266 124.277 189.456 124.277 189.456C124.277 189.456 128.495 186.423 131.362 187.6C134.229 188.778 135.599 189.283 135.676 190.973C135.753 192.663 134.965 198.397 134.965 198.397H133.557C133.557 198.397 128.834 204.547 128.329 205.776C127.823 207.005 125.129 213.757 125.129 213.757C125.129 213.757 128.681 211.101 130.901 209.079Z" fill="#92E3A9"/>
<path opacity="0.4" d="M147.951 205.821C147.951 205.821 143.228 209.584 142.191 210.768C141.583 211.479 140.681 212.861 139.631 214.327C140.158 212.616 140.52 210.859 140.713 209.079C141.708 207.627 143.121 206.511 144.764 205.879C145.801 205.573 146.892 205.49 147.964 205.636C147.966 205.698 147.961 205.76 147.951 205.821Z" fill="#92E3A9"/>
<path d="M23.3942 260.055C23.3942 260.055 64.7382 232.88 67.2662 229.373C68.5638 227.482 70.0949 225.761 71.823 224.253C71.823 224.253 73.007 214.122 76.047 208.893C79.087 203.664 80.2646 199.773 81.615 197.072C82.9654 194.371 89.3782 192.349 91.215 191.312C93.0518 190.275 96.2838 188.272 98.1398 188.272C99.5571 188.385 100.936 188.788 102.191 189.456C102.191 189.456 108.437 186.256 111.305 188.272C111.305 188.272 118.396 188.611 120.079 188.439C121.762 188.266 124.303 189.456 124.303 189.456C124.303 189.456 128.521 186.423 131.388 187.6C134.255 188.778 135.625 189.283 135.701 190.973C135.778 192.663 134.991 198.397 134.991 198.397H133.583C133.583 198.397 128.86 204.547 128.354 205.776C127.849 207.005 125.154 213.757 125.154 213.757C125.154 213.757 128.693 211.056 130.914 209.034C133.135 207.011 136.994 203.127 141.045 202.115C145.097 201.104 147.964 203.363 147.964 205.776C147.964 205.776 143.241 209.54 142.204 210.724C141.167 211.908 139.362 214.941 137.327 217.124C135.292 219.306 130.601 228.496 126.517 232.88C122.434 237.264 104.757 246.717 100.687 248.067C100.687 248.067 76.047 265.284 65.2438 279.799" stroke="#263238" stroke-width="0.64" stroke-linecap="round" stroke-linejoin="round"/>
<path d="M125.167 213.776C125.167 213.776 126.178 218.845 124.149 223.376" stroke="#263238" stroke-width="0.64" stroke-linecap="round" stroke-linejoin="round"/>
<path d="M118.581 193.379C120.703 192.414 122.649 191.103 124.341 189.501" stroke="#263238" stroke-width="0.64" stroke-linecap="round" stroke-linejoin="round"/>
<path d="M133.602 198.416C134.147 197.299 134.518 196.106 134.703 194.877" stroke="#263238" stroke-width="0.64" stroke-linecap="round" stroke-linejoin="round"/>
<path d="M111.324 188.317C109.271 188.272 107.268 188.952 105.666 190.237" stroke="#263238" stroke-width="0.64" stroke-linecap="round" stroke-linejoin="round"/>
<path d="M102.21 189.501C102.21 189.501 97.1478 191.863 95.375 191.863C93.6022 191.863 90.7286 194.224 90.7286 194.903" stroke="#263238" stroke-width="0.64" stroke-linecap="round" stroke-linejoin="round"/>
<path d="M71.823 224.272C73.3182 221.974 74.5383 219.508 75.4582 216.925" stroke="#263238" stroke-width="0.64" stroke-linecap="round" stroke-linejoin="round"/>
<path d="M119.676 194.903C119.676 194.903 116.476 195.741 115.375 198.442C114.274 201.143 109.212 210.512 109.212 210.512" stroke="#263238" stroke-width="0.64" stroke-linecap="round" stroke-linejoin="round"/>
<path d="M103.561 193.38C102.882 194.986 95.2854 209.079 95.2854 209.079" stroke="#263238" stroke-width="0.64" stroke-linecap="round" stroke-linejoin="round"/>
</g>
<defs>
<clipPath id="clip0_34_1436">
<rect width="270.253" height="279.507" fill="white" transform="translate(0.00862122 0.61145)"/>
</clipPath>
</defs>
</svg>
