<svg width="348" height="324" viewBox="0 0 348 324" fill="none" xmlns="http://www.w3.org/2000/svg">
<g clip-path="url(#clip0_49_338)">
<path d="M164.075 1.81008C257.775 -6.46542 257.964 46.1442 300.198 95.1953C342.431 144.246 351.461 166.477 335.517 223.022C319.572 279.566 265.997 323.885 199.605 298.772C133.214 273.66 95.2196 297.772 53.3641 275.451C11.5086 253.129 -4.06541 210.067 26.5989 159.285C57.2632 108.504 48.5052 12.0566 164.075 1.81008Z" fill="#92E3A9"/>
<path opacity="0.7" d="M164.075 1.81008C257.775 -6.46542 257.964 46.1442 300.198 95.1953C342.431 144.246 351.461 166.477 335.517 223.022C319.572 279.566 265.997 323.885 199.605 298.772C133.214 273.66 95.2196 297.772 53.3641 275.451C11.5086 253.129 -4.06541 210.067 26.5989 159.285C57.2632 108.504 48.5052 12.0566 164.075 1.81008Z" fill="white"/>
<path d="M226.464 24.3235L79.1825 40.6414L101.967 244.48L249.249 228.162L226.464 24.3235Z" fill="white" stroke="#263238" stroke-linecap="round" stroke-linejoin="round"/>
<path d="M226.471 24.3245L79.1895 40.6423L82.342 68.8457L229.624 52.5278L226.471 24.3245Z" fill="#BFBFBF" stroke="#263238" stroke-linecap="round" stroke-linejoin="round"/>
<path d="M185.55 37.3192L121.97 44.3609C121.674 44.3756 121.385 44.45 121.119 44.5798C120.854 44.7095 120.618 44.8918 120.425 45.1155C120.233 45.3392 120.088 45.5996 120 45.8807C119.912 46.1619 119.883 46.458 119.914 46.7509C119.944 47.0438 120.035 47.3274 120.18 47.5843C120.324 47.8412 120.52 48.066 120.755 48.2451C120.99 48.4242 121.259 48.5537 121.546 48.6257C121.832 48.6978 122.131 48.7109 122.423 48.6642L186.004 41.6225C186.56 41.5387 187.062 41.2437 187.404 40.7994C187.747 40.355 187.903 39.7959 187.841 39.2392C187.778 38.6826 187.502 38.1717 187.069 37.8137C186.636 37.4557 186.081 37.2785 185.52 37.3192H185.55Z" fill="white"/>
<path d="M170.641 47.912L138.858 51.4329C138.717 51.4469 138.579 51.489 138.453 51.5566C138.328 51.6242 138.217 51.716 138.128 51.8267C138.039 51.9374 137.972 52.0647 137.933 52.2011C137.894 52.3376 137.882 52.4805 137.899 52.6216C137.929 52.9067 138.072 53.1682 138.296 53.3487C138.52 53.5292 138.806 53.614 139.093 53.5845L170.883 50.0637C171.161 50.0218 171.412 49.8743 171.583 49.6521C171.755 49.43 171.833 49.1504 171.802 48.8721C171.77 48.5937 171.632 48.3383 171.416 48.1593C171.199 47.9803 170.922 47.8917 170.641 47.912Z" fill="white"/>
<path opacity="0.3" d="M194.399 72.3022L111.088 81.5256C110.875 81.5495 110.68 81.6569 110.546 81.8241C110.412 81.9913 110.35 82.2046 110.374 82.4171C110.398 82.6296 110.506 82.8239 110.674 82.9572C110.842 83.0905 111.056 83.152 111.27 83.128L194.557 73.9046C194.771 73.8807 194.966 73.7733 195.1 73.6061C195.234 73.4389 195.296 73.2256 195.272 73.0131C195.248 72.8006 195.14 72.6064 194.972 72.473C194.804 72.3397 194.59 72.2782 194.376 72.3022H194.399Z" fill="black"/>
<path opacity="0.3" d="M195.041 78.0573L99.2548 88.665C99.0413 88.6889 98.8462 88.7963 98.7123 88.9635C98.5784 89.1307 98.5166 89.344 98.5407 89.5565C98.5647 89.769 98.6726 89.9633 98.8405 90.0966C99.0084 90.2299 99.2227 90.2914 99.4361 90.2674L195.222 79.6597C195.331 79.6532 195.438 79.6248 195.536 79.5761C195.633 79.5275 195.72 79.4596 195.791 79.3766C195.861 79.2937 195.914 79.1973 195.947 79.0934C195.979 78.9895 195.99 78.8802 195.978 78.772C195.966 78.6628 195.932 78.5572 195.878 78.4614C195.824 78.3657 195.751 78.2819 195.663 78.2151C195.576 78.1483 195.475 78.0999 195.368 78.0728C195.261 78.0456 195.15 78.0404 195.041 78.0573Z" fill="black"/>
<path opacity="0.3" d="M170.686 86.5811L99.8971 94.4202C99.6836 94.4442 99.4885 94.5516 99.3546 94.7187C99.2207 94.8859 99.1589 95.0992 99.183 95.3117C99.207 95.5242 99.3149 95.7185 99.4828 95.8518C99.6507 95.9852 99.865 96.0466 100.078 96.0227L170.86 88.1835C170.969 88.177 171.076 88.1486 171.174 88.0999C171.271 88.0513 171.358 87.9834 171.429 87.9004C171.499 87.8175 171.552 87.7211 171.584 87.6172C171.617 87.5133 171.627 87.4039 171.616 87.2958C171.604 87.1873 171.57 87.0824 171.516 86.9872C171.463 86.8921 171.39 86.8087 171.304 86.742C171.217 86.6753 171.118 86.6267 171.011 86.599C170.905 86.5714 170.795 86.5653 170.686 86.5811Z" fill="black"/>
<path opacity="0.3" d="M215.522 69.2378L207.073 70.1739C205.936 70.2998 205.117 71.3191 205.244 72.4506L206.184 80.8622C206.311 81.9937 207.334 82.8088 208.471 82.6829L216.92 81.7468C218.056 81.6209 218.875 80.6016 218.749 79.4701L217.808 71.0585C217.682 69.927 216.658 69.1119 215.522 69.2378Z" stroke="#263238" stroke-linecap="round" stroke-linejoin="round"/>
<path d="M208.575 75.71L211.348 78.3205L215.013 72.7458" stroke="#92E3A9" stroke-width="3" stroke-linecap="round" stroke-linejoin="round"/>
<path opacity="0.3" d="M197.444 99.5661L114.156 108.79C113.943 108.813 113.748 108.921 113.614 109.088C113.48 109.255 113.418 109.469 113.442 109.681C113.466 109.894 113.574 110.088 113.742 110.221C113.91 110.354 114.124 110.416 114.338 110.392L197.625 101.169C197.731 101.157 197.833 101.124 197.926 101.073C198.02 101.022 198.102 100.953 198.168 100.87C198.234 100.787 198.284 100.692 198.313 100.591C198.342 100.489 198.351 100.382 198.34 100.277C198.328 100.172 198.295 100.07 198.244 99.9773C198.192 99.8846 198.123 99.803 198.04 99.7369C197.957 99.6709 197.861 99.6219 197.759 99.5925C197.657 99.5632 197.55 99.5543 197.444 99.5661Z" fill="black"/>
<path opacity="0.3" d="M198.086 105.321L102.3 115.929C102.194 115.941 102.092 115.973 101.999 116.024C101.906 116.076 101.824 116.145 101.758 116.227C101.691 116.31 101.642 116.405 101.613 116.507C101.583 116.609 101.574 116.715 101.586 116.82C101.598 116.926 101.63 117.027 101.682 117.12C101.733 117.213 101.803 117.295 101.886 117.361C101.969 117.427 102.064 117.476 102.167 117.505C102.269 117.534 102.376 117.543 102.481 117.531L198.268 106.924C198.481 106.9 198.676 106.792 198.81 106.625C198.944 106.458 199.006 106.245 198.982 106.032C198.958 105.82 198.85 105.625 198.682 105.492C198.514 105.359 198.3 105.297 198.086 105.321Z" fill="black"/>
<path opacity="0.3" d="M173.732 113.845L102.942 121.684C102.729 121.708 102.534 121.815 102.4 121.983C102.266 122.15 102.204 122.363 102.228 122.576C102.252 122.788 102.36 122.982 102.528 123.116C102.696 123.249 102.91 123.311 103.124 123.287L173.906 115.447C174.015 115.441 174.121 115.412 174.219 115.364C174.317 115.315 174.403 115.247 174.474 115.164C174.545 115.081 174.598 114.985 174.63 114.881C174.662 114.777 174.673 114.668 174.661 114.56C174.649 114.451 174.615 114.346 174.562 114.251C174.508 114.156 174.436 114.073 174.349 114.006C174.262 113.939 174.163 113.891 174.057 113.863C173.951 113.835 173.84 113.829 173.732 113.845Z" fill="black"/>
<path opacity="0.3" d="M218.569 96.5032L210.121 97.4392C208.984 97.5652 208.165 98.5845 208.292 99.7159L209.232 108.128C209.358 109.259 210.382 110.074 211.519 109.948L219.968 109.012C221.104 108.886 221.923 107.867 221.796 106.736L220.856 98.3239C220.73 97.1924 219.706 96.3772 218.569 96.5032Z" stroke="#263238" stroke-linecap="round" stroke-linejoin="round"/>
<path d="M211.62 102.974L214.393 105.577L218.058 100.002" stroke="#92E3A9" stroke-width="3" stroke-linecap="round" stroke-linejoin="round"/>
<path opacity="0.3" d="M200.489 126.83L117.201 136.054C117.002 136.092 116.824 136.204 116.703 136.367C116.582 136.531 116.528 136.733 116.551 136.935C116.574 137.136 116.672 137.321 116.827 137.454C116.981 137.586 117.179 137.656 117.383 137.648L200.671 128.41C200.776 128.398 200.879 128.366 200.972 128.314C201.065 128.263 201.147 128.194 201.213 128.111C201.28 128.029 201.329 127.934 201.358 127.832C201.388 127.73 201.397 127.624 201.385 127.519C201.373 127.413 201.34 127.311 201.289 127.219C201.237 127.126 201.168 127.044 201.085 126.978C201.002 126.912 200.906 126.863 200.804 126.834C200.702 126.805 200.595 126.796 200.489 126.808V126.83Z" fill="black"/>
<path opacity="0.3" d="M201.139 132.585L105.345 143.193C105.239 143.203 105.137 143.234 105.043 143.285C104.95 143.335 104.868 143.404 104.801 143.487C104.735 143.57 104.686 143.665 104.658 143.767C104.629 143.869 104.621 143.976 104.635 144.081C104.646 144.186 104.678 144.288 104.729 144.381C104.78 144.474 104.849 144.556 104.932 144.622C105.015 144.689 105.11 144.738 105.212 144.768C105.314 144.797 105.421 144.807 105.527 144.795L201.313 134.188C201.422 134.18 201.529 134.151 201.627 134.101C201.725 134.052 201.811 133.983 201.882 133.9C201.952 133.816 202.005 133.719 202.037 133.615C202.069 133.511 202.08 133.401 202.069 133.292C202.057 133.184 202.023 133.08 201.969 132.985C201.915 132.89 201.843 132.807 201.756 132.741C201.669 132.675 201.57 132.627 201.464 132.6C201.358 132.573 201.247 132.568 201.139 132.585Z" fill="black"/>
<path opacity="0.3" d="M176.777 141.109L105.988 148.948C105.774 148.972 105.579 149.08 105.445 149.247C105.311 149.414 105.249 149.627 105.274 149.84C105.298 150.052 105.405 150.247 105.573 150.38C105.741 150.513 105.956 150.575 106.169 150.551L176.951 142.704C177.164 142.681 177.36 142.575 177.494 142.408C177.629 142.242 177.692 142.029 177.669 141.816C177.646 141.604 177.539 141.409 177.372 141.275C177.204 141.141 176.99 141.079 176.777 141.102V141.109Z" fill="black"/>
<path opacity="0.3" d="M221.617 123.761L213.168 124.697C212.031 124.823 211.212 125.843 211.339 126.974L212.279 135.386C212.406 136.517 213.429 137.332 214.566 137.206L223.015 136.27C224.151 136.144 224.97 135.125 224.844 133.994L223.903 125.582C223.777 124.45 222.753 123.635 221.617 123.761Z" stroke="#263238" stroke-linecap="round" stroke-linejoin="round"/>
<path d="M214.665 130.23L217.439 132.841L221.104 127.266" stroke="#92E3A9" stroke-width="3" stroke-linecap="round" stroke-linejoin="round"/>
<path opacity="0.3" d="M203.535 154.094L120.247 163.318C120.047 163.356 119.869 163.468 119.748 163.631C119.628 163.795 119.573 163.997 119.596 164.199C119.619 164.4 119.718 164.585 119.872 164.718C120.026 164.85 120.225 164.92 120.428 164.912L203.716 155.689C203.827 155.685 203.937 155.658 204.037 155.61C204.138 155.562 204.227 155.494 204.3 155.41C204.373 155.326 204.427 155.228 204.46 155.122C204.493 155.016 204.504 154.904 204.491 154.794C204.479 154.684 204.443 154.577 204.387 154.481C204.332 154.385 204.256 154.302 204.166 154.236C204.077 154.17 203.974 154.124 203.865 154.099C203.757 154.075 203.644 154.073 203.535 154.094Z" fill="black"/>
<path opacity="0.3" d="M204.184 159.849L108.391 170.457C108.285 170.467 108.182 170.499 108.089 170.549C107.995 170.6 107.913 170.668 107.847 170.751C107.78 170.834 107.731 170.929 107.703 171.031C107.674 171.133 107.667 171.24 107.68 171.345C107.692 171.45 107.724 171.552 107.775 171.645C107.826 171.738 107.894 171.82 107.977 171.886C108.06 171.953 108.155 172.002 108.257 172.032C108.359 172.062 108.466 172.071 108.572 172.059L204.358 161.452C204.572 161.427 204.768 161.319 204.903 161.152C205.037 160.984 205.1 160.77 205.076 160.557C205.051 160.345 204.944 160.152 204.777 160.02C204.61 159.887 204.397 159.826 204.184 159.849Z" fill="black"/>
<path opacity="0.3" d="M179.853 168.373L109.063 176.212C108.957 176.222 108.855 176.254 108.761 176.304C108.668 176.355 108.585 176.423 108.519 176.506C108.453 176.589 108.404 176.684 108.375 176.786C108.347 176.888 108.339 176.995 108.353 177.1C108.364 177.205 108.396 177.307 108.447 177.4C108.498 177.493 108.567 177.575 108.65 177.641C108.733 177.708 108.828 177.757 108.93 177.787C109.032 177.817 109.139 177.826 109.244 177.815L180.026 169.975C180.132 169.964 180.235 169.932 180.328 169.882C180.421 169.831 180.504 169.762 180.57 169.68C180.637 169.597 180.687 169.503 180.716 169.401C180.746 169.299 180.756 169.193 180.744 169.088C180.734 168.982 180.702 168.88 180.652 168.786C180.601 168.693 180.532 168.61 180.449 168.544C180.366 168.477 180.271 168.428 180.168 168.398C180.066 168.369 179.958 168.36 179.853 168.373Z" fill="black"/>
<path opacity="0.3" d="M224.664 151.019L216.216 151.955C215.079 152.081 214.26 153.1 214.387 154.232L215.327 162.643C215.453 163.775 216.477 164.59 217.614 164.464L226.063 163.528C227.199 163.402 228.018 162.383 227.891 161.251L226.951 152.84C226.825 151.708 225.801 150.893 224.664 151.019Z" stroke="#263238" stroke-linecap="round" stroke-linejoin="round"/>
<path d="M217.711 157.494L220.484 160.105L224.149 154.53" stroke="#92E3A9" stroke-width="3" stroke-linecap="round" stroke-linejoin="round"/>
<path opacity="0.3" d="M206.587 181.35L123.3 190.574C123.194 190.585 123.092 190.617 122.998 190.668C122.905 190.719 122.823 190.787 122.756 190.87C122.689 190.952 122.64 191.047 122.61 191.148C122.58 191.25 122.57 191.356 122.582 191.462C122.593 191.567 122.625 191.669 122.676 191.762C122.727 191.854 122.796 191.936 122.879 192.003C122.962 192.069 123.057 192.119 123.159 192.148C123.261 192.178 123.368 192.188 123.473 192.176L206.761 182.953C206.867 182.942 206.969 182.91 207.063 182.859C207.156 182.808 207.238 182.74 207.305 182.657C207.372 182.575 207.422 182.48 207.451 182.378C207.481 182.277 207.491 182.17 207.479 182.065C207.454 181.853 207.347 181.66 207.18 181.526C207.013 181.392 206.801 181.329 206.587 181.35Z" fill="black"/>
<path opacity="0.3" d="M207.23 187.091L111.436 197.698C111.324 197.702 111.215 197.729 111.115 197.777C111.014 197.825 110.925 197.893 110.852 197.977C110.779 198.061 110.724 198.159 110.692 198.265C110.659 198.372 110.648 198.483 110.661 198.593C110.673 198.704 110.709 198.81 110.764 198.906C110.82 199.002 110.896 199.086 110.985 199.152C111.075 199.217 111.178 199.264 111.286 199.288C111.395 199.313 111.508 199.314 111.617 199.293L207.404 188.686C207.515 188.683 207.626 188.657 207.727 188.61C207.828 188.563 207.919 188.495 207.992 188.411C208.066 188.328 208.122 188.229 208.155 188.123C208.189 188.017 208.2 187.905 208.188 187.794C208.176 187.683 208.141 187.576 208.085 187.48C208.029 187.383 207.954 187.299 207.864 187.233C207.774 187.167 207.671 187.12 207.562 187.096C207.453 187.071 207.34 187.069 207.23 187.091Z" fill="black"/>
<path opacity="0.3" d="M182.875 195.637L112.086 203.476C111.872 203.5 111.677 203.607 111.543 203.775C111.409 203.942 111.348 204.155 111.372 204.368C111.396 204.58 111.504 204.774 111.671 204.908C111.839 205.041 112.054 205.103 112.267 205.079L183.056 197.239C183.269 197.213 183.463 197.104 183.596 196.937C183.729 196.769 183.79 196.556 183.767 196.344C183.756 196.239 183.723 196.137 183.672 196.045C183.621 195.952 183.552 195.871 183.469 195.805C183.386 195.739 183.291 195.691 183.189 195.662C183.087 195.633 182.98 195.624 182.875 195.637Z" fill="black"/>
<path opacity="0.3" d="M227.705 178.292L219.256 179.228C218.119 179.354 217.301 180.373 217.427 181.505L218.367 189.916C218.494 191.048 219.518 191.863 220.654 191.737L229.103 190.801C230.24 190.675 231.058 189.656 230.932 188.524L229.992 180.113C229.865 178.981 228.841 178.166 227.705 178.292Z" stroke="#263238" stroke-linecap="round" stroke-linejoin="round"/>
<path d="M220.756 184.759L223.529 187.369L227.194 181.794" stroke="#92E3A9" stroke-width="3" stroke-linecap="round" stroke-linejoin="round"/>
<path opacity="0.3" d="M208.907 202.137L125.619 211.376C125.406 211.4 125.211 211.507 125.077 211.674C124.943 211.841 124.881 212.055 124.905 212.267C124.929 212.48 125.037 212.674 125.205 212.807C125.373 212.941 125.587 213.002 125.801 212.978L209.089 203.755C209.195 203.744 209.297 203.713 209.391 203.663C209.484 203.612 209.566 203.543 209.633 203.461C209.699 203.378 209.748 203.283 209.776 203.181C209.805 203.079 209.813 202.972 209.799 202.867C209.79 202.76 209.759 202.657 209.709 202.562C209.659 202.467 209.59 202.384 209.507 202.316C209.424 202.248 209.328 202.197 209.225 202.166C209.122 202.136 209.014 202.126 208.907 202.137Z" fill="black"/>
<path opacity="0.3" d="M209.55 207.915L113.763 218.522C113.651 218.525 113.541 218.551 113.44 218.598C113.339 218.645 113.248 218.713 113.174 218.797C113.101 218.881 113.045 218.979 113.012 219.085C112.978 219.191 112.967 219.303 112.979 219.414C112.991 219.525 113.026 219.632 113.082 219.728C113.137 219.825 113.213 219.909 113.303 219.975C113.393 220.041 113.496 220.088 113.605 220.113C113.714 220.137 113.827 220.139 113.937 220.117L209.731 209.51C209.931 209.471 210.109 209.359 210.229 209.196C210.35 209.033 210.404 208.83 210.381 208.629C210.358 208.427 210.26 208.242 210.106 208.11C209.952 207.977 209.753 207.908 209.55 207.915Z" fill="black"/>
<path opacity="0.3" d="M185.187 216.431L114.406 224.27C114.3 224.282 114.197 224.313 114.104 224.364C114.011 224.415 113.928 224.483 113.862 224.566C113.795 224.648 113.745 224.743 113.715 224.845C113.686 224.946 113.676 225.053 113.688 225.158C113.712 225.371 113.821 225.566 113.989 225.7C114.158 225.834 114.373 225.896 114.587 225.873L185.369 218.034C185.474 218.022 185.577 217.989 185.67 217.938C185.763 217.887 185.845 217.818 185.911 217.735C185.978 217.652 186.027 217.557 186.056 217.456C186.086 217.354 186.095 217.247 186.083 217.142C186.071 217.037 186.038 216.935 185.987 216.842C185.935 216.75 185.866 216.668 185.783 216.602C185.7 216.536 185.604 216.487 185.502 216.458C185.4 216.428 185.293 216.419 185.187 216.431Z" fill="black"/>
<path opacity="0.3" d="M230.039 199.086L221.59 200.022C220.454 200.148 219.635 201.167 219.761 202.299L220.702 210.71C220.828 211.842 221.852 212.657 222.988 212.531L231.437 211.595C232.574 211.469 233.393 210.45 233.266 209.318L232.326 200.907C232.2 199.775 231.176 198.96 230.039 199.086Z" stroke="#263238" stroke-linecap="round" stroke-linejoin="round"/>
<path d="M223.083 205.56L225.857 208.171L229.521 202.596" stroke="#92E3A9" stroke-width="3" stroke-linecap="round" stroke-linejoin="round"/>
<path d="M139.659 148.926C139.732 148.061 139.517 147.196 139.047 146.465L138.118 144.825L136.274 145.864L137.279 147.624C137.778 148.504 137.574 149.046 136.954 149.392C136.335 149.738 135.76 149.648 135.262 148.768L133.108 144.961L130.796 145.412L133.259 149.738C134.385 151.717 136.017 152.281 137.929 151.243C138.233 151.069 138.515 150.859 138.768 150.618C138.66 150.37 138.642 150.093 138.714 149.833C138.787 149.573 138.947 149.346 139.168 149.189C139.316 149.075 139.482 148.986 139.659 148.926Z" fill="#92E3A9"/>
<path d="M129.609 143.328L130.048 144.081H132.594L131.483 142.125C130.985 141.245 131.181 140.688 131.801 140.342C132.42 139.996 133.002 140.101 133.501 140.989L134.257 142.305L136.093 141.267L135.413 140.071C134.287 138.1 132.655 137.528 130.743 138.611C130.304 138.847 129.914 139.164 129.594 139.544C130.028 139.683 130.483 139.747 130.939 139.732L129.126 140.409C128.993 140.902 128.967 141.418 129.051 141.921C129.134 142.424 129.324 142.904 129.609 143.328Z" fill="#92E3A9"/>
<path d="M143.732 135.309C143.975 135.188 144.228 135.09 144.488 135.015C145.463 134.579 145.682 133.18 145.599 132.194L144.594 130.953L141.889 132.458L143.581 135.422C143.625 135.376 143.676 135.338 143.732 135.309Z" fill="#92E3A9"/>
<path d="M155.256 141.199L157.092 140.161L150.072 127.838L148.327 128.816C148.886 128.952 149.286 129.215 149.302 129.621C148.757 129.696 148.092 129.621 147.503 129.726L151.04 138.852L146.566 133.3C146.578 133.423 146.56 133.547 146.512 133.661C146.465 133.775 146.39 133.876 146.294 133.954C146.09 134.097 145.795 134.097 145.637 134.285C145.478 134.474 145.501 134.699 145.365 134.865C145.229 135.03 145.017 135.075 144.851 135.196C144.685 135.316 144.503 135.625 144.314 135.828C144.223 135.923 144.109 135.993 143.982 136.031L148.954 144.758L150.647 143.795L145.682 135.083L152.06 142.997L153.903 141.959L150.178 132.382L155.256 141.199Z" fill="#92E3A9"/>
<path d="M159.903 130.471C160.038 130.538 160.157 130.631 160.254 130.745C160.352 130.859 160.425 130.991 160.47 131.133C160.629 130.204 160.426 129.249 159.903 128.463L158.989 126.853C157.863 124.881 156.299 124.347 154.349 125.446L151.485 127.063L158.513 139.394L160.334 138.363C159.745 137.994 159.087 137.678 158.528 137.28C158.266 137.113 158.05 136.882 157.901 136.61C157.83 136.473 157.801 136.318 157.817 136.164C157.833 136.011 157.894 135.865 157.992 135.745C158.12 135.637 158.276 135.568 158.441 135.546C158.607 135.523 158.776 135.548 158.929 135.617L157.818 133.661L158.74 133.142C159.246 132.868 159.687 132.489 160.032 132.029C159.646 131.419 158.974 130.125 159.903 130.471ZM157.735 131.419L156.813 131.938L154.432 127.763L155.354 127.244C155.974 126.898 156.473 126.988 156.971 127.868L158.029 129.719C158.528 130.561 158.354 131.035 157.735 131.419Z" fill="#92E3A9"/>
<path d="M170.324 132.721L169.326 130.96L166.122 132.766L161.437 124.543L161.226 124.708C161.089 124.835 160.923 124.925 160.742 124.972C160.651 124.992 160.556 124.979 160.474 124.935C160.392 124.89 160.329 124.818 160.296 124.731C160.27 124.615 160.27 124.494 160.296 124.377C160.297 123.677 160.075 122.995 159.662 122.429L158.15 123.302L165.17 135.625L170.324 132.721Z" fill="#92E3A9"/>
<path d="M169.447 128.41C169.659 127.861 170.316 127.658 170.686 127.161C170.72 127.11 170.75 127.057 170.777 127.003L170.021 125.739L171.933 124.663C171.898 124.543 171.836 124.433 171.752 124.34C171.478 124.207 171.185 124.115 170.883 124.069C170.836 123.976 170.813 123.872 170.814 123.768C170.816 123.663 170.843 123.561 170.892 123.469C170.942 123.377 171.013 123.298 171.099 123.239C171.186 123.18 171.285 123.142 171.389 123.129C171.518 123.129 171.669 123.129 171.767 123.069C171.836 122.987 171.871 122.882 171.865 122.775L171.691 122.474L169.016 123.979L167.067 120.548L170.422 118.645L169.417 116.885L164.127 119.894L169.326 129.019C169.335 128.811 169.376 128.606 169.447 128.41Z" fill="#92E3A9"/>
<path d="M176.482 129.245L175.477 127.485L172.115 129.38L171.11 127.658L169.87 128.816L169.44 129.23L171.178 132.277L176.482 129.245Z" fill="#92E3A9"/>
<path d="M173.981 114.928C173.981 115.192 173.792 115.485 173.535 115.508C173.405 115.506 173.275 115.486 173.15 115.447C172.916 115.452 172.683 115.429 172.455 115.38C172.405 115.359 172.359 115.332 172.319 115.297L170.097 116.553L171.102 118.321L173.135 117.17L179.18 127.703L181.122 126.604L175.077 116.072L177.117 114.921L176.112 113.16L174.026 114.334C173.989 114.53 174.004 114.733 173.981 114.928Z" fill="#92E3A9"/>
<path d="M182.467 122.391L183.978 125.047L186.019 123.896C186.067 123.763 186.128 123.634 186.2 123.512C186.649 122.859 187.254 122.326 187.961 121.963L188.898 121.383L188.278 120.285L184.915 122.188L182.86 118.577L185.535 117.072L184.53 115.312L181.855 116.817L179.905 113.364L183.268 111.468L182.263 109.707L176.973 112.717L180.79 119.42C181.711 118.931 182.172 120.691 182.467 122.391Z" fill="#92E3A9"/>
<path d="M143.332 146.736C143.649 146.789 143.838 147.105 144.088 147.316C144.178 147.399 144.283 147.465 144.397 147.511C144.542 147.454 144.683 147.389 144.821 147.316C146.725 146.24 147.125 144.525 146.007 142.546L145.894 142.35L143.279 142.283L144.133 143.787C144.632 144.668 144.435 145.224 143.816 145.57C143.196 145.916 142.614 145.804 142.115 144.923L138.337 138.265C137.831 137.385 138.035 136.836 138.654 136.482C139.274 136.129 139.848 136.249 140.355 137.129L142.916 141.643C143.703 141.449 144.509 141.348 145.319 141.342L142.365 136.159C141.246 134.188 139.561 133.654 137.649 134.729C135.738 135.805 135.337 137.528 136.463 139.499L140.113 145.909C140.343 146.403 140.688 146.836 141.119 147.172C141.55 147.508 142.054 147.738 142.591 147.842C142.587 147.797 142.587 147.752 142.591 147.707C142.501 147.218 142.863 146.646 143.332 146.736Z" fill="#92E3A9"/>
<path d="M169.425 111.355L175.356 108.007C173.656 108.474 172.16 109.888 170.407 109.692C170.09 109.609 169.757 109.609 169.44 109.692C169.242 109.819 169.099 110.016 169.04 110.244C168.981 110.471 169.011 110.712 169.122 110.919C169.199 111.079 169.301 111.227 169.425 111.355Z" fill="#92E3A9"/>
<path d="M154.546 119.758C154.533 119.628 154.559 119.497 154.621 119.382C154.767 119.433 154.92 119.458 155.075 119.457L157.123 118.306C157.443 117.945 157.809 117.627 158.211 117.358C158.599 117.152 159.01 116.99 159.435 116.877L159.888 116.741L163.666 114.62C163.706 114.543 163.76 114.474 163.825 114.417C163.884 114.378 163.947 114.348 164.014 114.326L160.115 113.153L159.065 113.74L158.951 114.567L154.455 116.96C154.01 117.236 153.514 117.423 152.997 117.509C152.803 117.531 152.608 117.531 152.415 117.509L146.007 121.127C146.058 121.43 146.144 121.725 146.264 122.008C145.888 121.938 145.53 121.792 145.213 121.579L143.899 122.331C144.836 122.948 145.758 123.58 146.657 124.25L154.546 119.758Z" fill="#92E3A9"/>
<path d="M181.976 104.275L178.878 102.545L177.412 103.373C178.275 104.257 179.391 104.856 180.608 105.088L181.976 104.275Z" fill="#92E3A9"/>
<path d="M198.638 122.489L186.941 101.959C186.486 101.165 185.734 100.582 184.849 100.338C183.964 100.094 183.018 100.209 182.218 100.657L180.812 101.455L181.349 101.974C181.908 102.53 182.482 103.095 183.004 103.689L183.714 103.29C183.812 103.235 183.928 103.221 184.037 103.251C184.146 103.28 184.239 103.351 184.296 103.448L196.001 123.986C196.055 124.085 196.068 124.202 196.037 124.31C196.006 124.418 195.933 124.51 195.835 124.566L179.913 133.594C181.288 133.676 182.679 133.481 184.054 133.639C184.549 133.701 185.041 133.789 185.527 133.902L197.331 127.236C197.732 127.012 198.084 126.711 198.367 126.35C198.65 125.989 198.858 125.576 198.98 125.135C199.102 124.693 199.134 124.232 199.075 123.778C199.017 123.324 198.868 122.886 198.638 122.489Z" fill="#92E3A9"/>
<path d="M126.957 148.617L121.456 138.942C121.427 138.893 121.409 138.84 121.402 138.784C121.394 138.728 121.398 138.671 121.413 138.616C121.427 138.562 121.453 138.511 121.487 138.466C121.522 138.421 121.565 138.384 121.614 138.356L137.483 129.388C137.43 129.268 137.362 129.147 137.317 129.027C137.541 129.017 137.765 129.043 137.982 129.102L144.397 125.483C144.186 125.416 143.982 125.333 143.778 125.258L140.755 124.062L138.337 125.431L140.967 127.033C140.052 126.476 138.186 126.401 136.576 126.424L120.156 135.73C119.357 136.182 118.771 136.93 118.526 137.812C118.281 138.693 118.397 139.636 118.849 140.432L123.625 148.813C123.844 148.753 124.07 148.7 124.289 148.662C124.895 148.576 125.507 148.545 126.118 148.572C126.398 148.57 126.679 148.585 126.957 148.617Z" fill="#92E3A9"/>
<path d="M146.559 152.394C146.828 152.634 147.134 152.83 147.465 152.973C147.805 153.124 148.259 153.485 147.994 153.725C146.77 154.282 145.259 153.868 144.057 154.478C143.4 154.794 142.765 155.418 142.062 155.23C142.912 155.744 143.677 156.386 144.329 157.133L174.336 140.191C174.336 140.071 174.374 139.951 174.397 139.823C174.397 139.586 174.452 139.352 174.557 139.14C174.662 138.927 174.815 138.742 175.003 138.597C175.191 138.451 175.409 138.351 175.642 138.303C175.875 138.254 176.116 138.26 176.346 138.318C176.736 138.301 177.125 138.342 177.502 138.438L181.243 136.324C180.73 135.444 180.122 134.621 179.429 133.872L146.559 152.394Z" fill="#92E3A9"/>
<path d="M141.7 157.367C140.976 157.133 140.309 156.751 139.743 156.246L133.758 159.631C133.709 159.659 133.656 159.677 133.6 159.685C133.544 159.692 133.488 159.688 133.434 159.673C133.379 159.659 133.329 159.633 133.285 159.599C133.24 159.565 133.203 159.522 133.176 159.473L127.886 150.242C127.38 150.068 126.84 150.006 126.307 150.062C125.695 150.182 125.158 150.889 125.491 151.408C125.803 151.416 126.108 151.507 126.374 151.671C126.639 151.835 126.856 152.066 127.002 152.341C126.676 152.599 126.318 152.814 125.937 152.981L130.471 160.963C130.696 161.366 131 161.72 131.365 162.005C131.729 162.289 132.148 162.498 132.595 162.619C133.042 162.741 133.509 162.772 133.968 162.711C134.427 162.65 134.87 162.498 135.269 162.264L143.113 157.833L143.022 157.78C142.589 157.619 142.148 157.481 141.7 157.367Z" fill="#92E3A9"/>
<g opacity="0.2">
<path d="M139.659 148.926C139.732 148.061 139.517 147.197 139.047 146.466L138.118 144.826L136.274 145.864L137.279 147.624C137.778 148.505 137.574 149.046 136.954 149.392C136.335 149.738 135.76 149.648 135.262 148.768L133.108 144.961L130.796 145.412L133.259 149.738C134.385 151.717 136.017 152.281 137.929 151.243C138.233 151.069 138.515 150.86 138.768 150.619C138.66 150.371 138.642 150.093 138.714 149.833C138.787 149.573 138.947 149.346 139.168 149.189C139.316 149.075 139.482 148.986 139.659 148.926Z" fill="black"/>
<path d="M129.609 143.328L130.048 144.081H132.594L131.483 142.125C130.985 141.245 131.181 140.688 131.801 140.342C132.42 139.996 133.002 140.101 133.501 140.989L134.257 142.305L136.093 141.267L135.413 140.071C134.287 138.1 132.655 137.528 130.743 138.611C130.304 138.847 129.914 139.164 129.594 139.544C130.028 139.683 130.483 139.747 130.939 139.732L129.126 140.409C128.993 140.902 128.967 141.418 129.051 141.921C129.134 142.424 129.324 142.904 129.609 143.328Z" fill="black"/>
<path d="M143.732 135.309C143.975 135.188 144.228 135.09 144.488 135.015C145.463 134.579 145.682 133.18 145.599 132.194L144.594 130.953L141.889 132.458L143.581 135.422C143.625 135.376 143.676 135.338 143.732 135.309Z" fill="black"/>
<path d="M155.256 141.2L157.092 140.161L150.072 127.838L148.327 128.816C148.886 128.952 149.286 129.215 149.302 129.621C148.757 129.697 148.093 129.621 147.503 129.727L151.04 138.852L146.566 133.3C146.578 133.423 146.56 133.547 146.512 133.661C146.465 133.775 146.39 133.876 146.294 133.955C146.09 134.098 145.795 134.098 145.637 134.286C145.478 134.474 145.501 134.7 145.365 134.865C145.229 135.031 145.017 135.076 144.851 135.196C144.685 135.316 144.503 135.625 144.314 135.828C144.223 135.924 144.109 135.994 143.982 136.031L148.954 144.758L150.647 143.795L145.682 135.083L152.06 142.998L153.903 141.959L150.178 132.382L155.256 141.2Z" fill="black"/>
<path d="M159.903 130.471C160.038 130.538 160.157 130.631 160.254 130.745C160.352 130.859 160.425 130.991 160.47 131.133C160.629 130.204 160.426 129.249 159.903 128.463L158.989 126.853C157.863 124.882 156.299 124.348 154.349 125.446L151.485 127.063L158.513 139.394L160.334 138.363C159.745 137.995 159.087 137.679 158.528 137.28C158.266 137.113 158.05 136.883 157.901 136.61C157.83 136.473 157.801 136.318 157.817 136.164C157.833 136.011 157.894 135.865 157.992 135.745C158.12 135.638 158.276 135.569 158.441 135.546C158.607 135.523 158.776 135.548 158.929 135.617L157.818 133.661L158.74 133.142C159.246 132.869 159.687 132.489 160.032 132.029C159.646 131.419 158.974 130.125 159.903 130.471ZM157.735 131.419L156.813 131.938L154.432 127.763L155.354 127.244C155.974 126.898 156.473 126.988 156.971 127.868L158.029 129.719C158.528 130.562 158.354 131.036 157.735 131.419Z" fill="black"/>
<path d="M170.324 132.721L169.326 130.96L166.122 132.766L161.437 124.543L161.226 124.709C161.089 124.835 160.923 124.926 160.742 124.972C160.651 124.992 160.556 124.979 160.474 124.935C160.392 124.891 160.329 124.818 160.296 124.731C160.27 124.615 160.27 124.494 160.296 124.378C160.297 123.678 160.075 122.995 159.662 122.429L158.15 123.302L165.17 135.625L170.324 132.721Z" fill="black"/>
<path d="M169.447 128.41C169.659 127.861 170.316 127.658 170.686 127.161C170.72 127.11 170.75 127.057 170.777 127.003L170.021 125.739L171.933 124.663C171.898 124.543 171.836 124.433 171.752 124.34C171.478 124.207 171.185 124.115 170.883 124.069C170.836 123.976 170.813 123.872 170.814 123.768C170.816 123.663 170.843 123.561 170.892 123.469C170.942 123.377 171.013 123.298 171.099 123.239C171.186 123.18 171.285 123.142 171.389 123.129C171.518 123.129 171.669 123.129 171.767 123.069C171.836 122.987 171.871 122.882 171.865 122.775L171.691 122.474L169.016 123.979L167.067 120.548L170.422 118.645L169.417 116.885L164.127 119.894L169.326 129.019C169.335 128.811 169.376 128.606 169.447 128.41Z" fill="black"/>
<path d="M176.482 129.245L175.477 127.485L172.115 129.38L171.11 127.658L169.87 128.816L169.44 129.23L171.178 132.277L176.482 129.245Z" fill="black"/>
<path d="M173.981 114.929C173.981 115.192 173.792 115.485 173.535 115.508C173.405 115.506 173.275 115.486 173.15 115.448C172.916 115.452 172.683 115.429 172.455 115.38C172.405 115.36 172.359 115.332 172.319 115.297L170.097 116.554L171.102 118.322L173.135 117.17L179.18 127.703L181.122 126.605L175.077 116.072L177.117 114.921L176.112 113.161L174.026 114.334C173.989 114.53 174.004 114.733 173.981 114.929Z" fill="black"/>
<path d="M182.467 122.392L183.978 125.047L186.019 123.896C186.067 123.763 186.128 123.634 186.2 123.513C186.649 122.859 187.254 122.327 187.961 121.963L188.898 121.383L188.278 120.285L184.915 122.188L182.86 118.577L185.535 117.073L184.53 115.312L181.855 116.817L179.905 113.364L183.268 111.468L182.263 109.708L176.973 112.717L180.79 119.42C181.711 118.931 182.172 120.691 182.467 122.392Z" fill="black"/>
<path d="M143.332 146.737C143.649 146.789 143.838 147.105 144.088 147.316C144.178 147.399 144.283 147.465 144.397 147.512C144.542 147.454 144.683 147.389 144.821 147.316C146.725 146.24 147.125 144.525 146.007 142.546L145.894 142.351L143.279 142.283L144.133 143.788C144.632 144.668 144.435 145.224 143.816 145.571C143.196 145.917 142.614 145.804 142.115 144.924L138.337 138.266C137.831 137.385 138.035 136.836 138.654 136.483C139.274 136.129 139.848 136.249 140.355 137.13L142.916 141.643C143.703 141.45 144.509 141.349 145.319 141.343L142.365 136.159C141.246 134.188 139.561 133.654 137.649 134.73C135.738 135.805 135.337 137.528 136.463 139.499L140.113 145.909C140.343 146.403 140.688 146.836 141.119 147.172C141.55 147.508 142.054 147.738 142.591 147.843C142.587 147.797 142.587 147.752 142.591 147.707C142.501 147.218 142.863 146.646 143.332 146.737Z" fill="black"/>
<path d="M169.425 111.355L175.356 108.007C173.656 108.474 172.16 109.888 170.407 109.693C170.09 109.61 169.757 109.61 169.44 109.693C169.242 109.82 169.099 110.017 169.04 110.244C168.981 110.471 169.011 110.712 169.122 110.919C169.199 111.079 169.301 111.227 169.425 111.355Z" fill="black"/>
<path d="M154.546 119.758C154.533 119.628 154.559 119.497 154.621 119.382C154.767 119.433 154.92 119.458 155.075 119.458L157.123 118.306C157.443 117.945 157.809 117.627 158.211 117.359C158.599 117.152 159.01 116.99 159.435 116.877L159.888 116.742L163.666 114.62C163.706 114.543 163.76 114.474 163.825 114.417C163.884 114.378 163.947 114.348 164.014 114.327L160.115 113.153L159.065 113.74L158.951 114.567L154.455 116.96C154.01 117.237 153.514 117.423 152.997 117.509C152.803 117.532 152.608 117.532 152.415 117.509L146.007 121.128C146.058 121.43 146.144 121.725 146.264 122.008C145.888 121.938 145.53 121.792 145.213 121.579L143.899 122.331C144.836 122.948 145.758 123.58 146.657 124.25L154.546 119.758Z" fill="black"/>
<path d="M181.976 104.276L178.878 102.545L177.412 103.373C178.276 104.257 179.391 104.856 180.608 105.088L181.976 104.276Z" fill="black"/>
<path d="M198.638 122.489L186.941 101.959C186.486 101.165 185.734 100.582 184.849 100.338C183.964 100.094 183.018 100.209 182.218 100.657L180.812 101.455L181.349 101.974C181.908 102.53 182.482 103.095 183.004 103.689L183.714 103.29C183.812 103.235 183.928 103.221 184.037 103.251C184.146 103.28 184.239 103.351 184.296 103.448L196.001 123.986C196.055 124.085 196.068 124.202 196.037 124.31C196.006 124.418 195.933 124.51 195.835 124.566L179.913 133.594C181.288 133.676 182.679 133.481 184.054 133.639C184.549 133.701 185.041 133.789 185.527 133.902L197.331 127.236C197.732 127.012 198.084 126.711 198.367 126.35C198.65 125.989 198.858 125.576 198.98 125.135C199.102 124.693 199.134 124.232 199.075 123.778C199.017 123.324 198.868 122.886 198.638 122.489Z" fill="black"/>
<path d="M126.957 148.617L121.456 138.943C121.427 138.894 121.409 138.84 121.402 138.784C121.394 138.728 121.398 138.671 121.413 138.616C121.427 138.562 121.453 138.511 121.487 138.466C121.522 138.421 121.565 138.384 121.614 138.356L137.483 129.388C137.43 129.268 137.362 129.147 137.317 129.027C137.541 129.018 137.765 129.043 137.982 129.102L144.397 125.484C144.186 125.416 143.982 125.333 143.778 125.258L140.755 124.062L138.337 125.431L140.967 127.033C140.052 126.477 138.186 126.401 136.576 126.424L120.156 135.73C119.357 136.182 118.771 136.93 118.526 137.812C118.281 138.694 118.397 139.636 118.849 140.432L123.625 148.813C123.844 148.753 124.07 148.7 124.289 148.663C124.895 148.576 125.507 148.546 126.118 148.572C126.398 148.57 126.679 148.585 126.957 148.617Z" fill="black"/>
<path d="M146.559 152.394C146.828 152.634 147.134 152.83 147.465 152.973C147.805 153.124 148.259 153.485 147.994 153.725C146.77 154.282 145.259 153.868 144.057 154.478C143.4 154.794 142.765 155.418 142.062 155.23C142.912 155.744 143.677 156.386 144.329 157.133L174.336 140.191C174.336 140.071 174.374 139.951 174.397 139.823C174.397 139.586 174.452 139.352 174.557 139.14C174.662 138.927 174.815 138.742 175.003 138.597C175.191 138.451 175.409 138.351 175.642 138.303C175.875 138.254 176.116 138.26 176.346 138.318C176.736 138.301 177.125 138.342 177.502 138.438L181.243 136.324C180.73 135.444 180.122 134.621 179.429 133.872L146.559 152.394Z" fill="black"/>
<path d="M141.7 157.367C140.976 157.133 140.309 156.751 139.743 156.246L133.758 159.631C133.709 159.659 133.656 159.678 133.6 159.685C133.544 159.692 133.488 159.688 133.434 159.674C133.379 159.659 133.329 159.634 133.285 159.599C133.24 159.565 133.203 159.522 133.176 159.473L127.886 150.242C127.38 150.068 126.84 150.006 126.307 150.062C125.695 150.182 125.158 150.889 125.491 151.408C125.803 151.416 126.108 151.507 126.374 151.671C126.639 151.835 126.856 152.066 127.002 152.341C126.676 152.599 126.318 152.814 125.937 152.981L130.471 160.963C130.696 161.366 131 161.72 131.365 162.005C131.729 162.289 132.148 162.498 132.595 162.62C133.042 162.741 133.509 162.772 133.968 162.711C134.427 162.65 134.87 162.498 135.269 162.264L143.113 157.833L143.022 157.781C142.589 157.619 142.148 157.481 141.7 157.367Z" fill="black"/>
</g>
<path opacity="0.3" d="M107.673 130.501C112.282 133.872 116.136 150.062 116.484 164.905C116.831 179.748 124.04 204.778 124.902 208.878C125.763 212.978 125.446 218.891 130.796 210.661C136.146 202.431 151.795 188.144 158.316 192.891C164.838 197.638 153.858 213.595 147.911 222.186C141.964 230.778 141.36 245.907 134.234 255.379C127.108 264.85 120.67 279.152 113.688 278.934C106.705 278.716 60.4596 312.871 60.4596 312.871L61.3664 266.122L102.927 198.413L107.673 130.501Z" fill="black" fill-opacity="0.7"/>
<path d="M162.11 195.186C161.876 196.653 153.737 207.388 148.954 215.423C144.171 223.458 139.69 237.443 138.488 239.497C137.287 241.551 122.62 254.378 118.599 259.742C114.579 265.106 107.401 267.476 100.23 272.531C95.6201 275.781 81.2552 292.551 71.5753 304.129C66.195 310.561 62.2581 315.414 62.2581 315.414L0.377827 299.352C0.377827 299.352 5.50114 295.146 12.2415 289.474H12.2869L12.3549 289.421C23.4327 280.055 38.8707 266.836 43.1326 261.848C50.0014 253.814 59.568 244.267 59.568 244.267C58.9861 233.11 60.1725 222.54 59.1222 218.523C58.5781 216.424 57.6108 204.484 56.8552 200.813C55.019 191.432 47.0317 181.712 46.1325 177.882C45.2333 174.053 34.6919 157.75 39.8379 154.741C40.7735 154.155 41.8855 153.913 42.9814 154.056C49.9334 155.012 55.6613 171.728 59.6058 175.986C61.296 178.002 62.8269 180.145 64.185 182.396C67.2983 187.309 70.3511 192.831 70.3511 192.831C71.545 188.069 62.8777 171.104 60.4823 155.034C58.0869 138.965 51.218 130.336 60.4823 129.343C61.2435 129.258 62.0141 129.324 62.7493 129.538C69.2705 131.434 72.0967 144.923 75.9958 158.014C76.3585 159.217 79.3283 167.861 81.6405 174.527C83.1519 178.89 84.3609 182.404 84.3609 182.404C84.6556 174.219 82.0939 166.605 81.6708 159.187C81.4894 156.216 82.4264 144.306 81.2476 132.405C80.235 122.361 80.696 118.291 84.6405 117.501C85.4854 117.35 86.3466 117.309 87.2021 117.381C94.0408 117.81 96.4664 135.903 96.4664 142.96C96.4664 147.06 97.1692 155.065 97.7586 161.068C98.1893 165.409 98.5596 168.704 98.5596 168.704C98.5596 168.704 99.7535 158.736 98.8618 137.235C98.6578 132.525 98.9676 129.155 100.827 127.793C101.847 127.041 103.32 126.913 105.436 127.485C111.413 129.095 113.355 151.145 113.355 159.481C113.355 167.816 118.138 182.095 119.038 193.335C119.937 204.575 123.851 218.387 123.851 218.387C123.851 218.387 126.065 219.282 127.554 218.989C129.043 218.696 139.365 203.514 139.365 203.514C144.171 193.124 153.526 189.972 158.619 191.138C160.961 191.672 162.473 193.109 162.11 195.186Z" fill="white"/>
<path opacity="0.4" d="M162.11 195.186C161.876 196.653 153.737 207.388 148.954 215.423C144.171 223.458 139.69 237.443 138.488 239.497C137.287 241.551 122.62 254.378 118.599 259.742C114.579 265.106 107.401 267.476 100.23 272.531C95.6201 275.781 81.2552 292.551 71.5753 304.129C72.6407 299.931 75.0286 294.567 81.2703 289.413C92.1063 280.453 92.7562 273.427 98.5822 267.476C104.408 261.525 114.67 263.308 118.358 256.191C122.045 249.074 134.906 242.499 137.597 236.247C140.287 229.995 134.906 228.671 139.69 221.148C144.473 213.625 149.113 211.797 148.433 208.848C147.752 205.899 145.742 201.43 149.891 197.706C152.483 195.389 155.528 192.477 158.641 191.138C160.961 191.672 162.473 193.109 162.11 195.186Z" fill="#92E3A9"/>
<path opacity="0.4" d="M84.58 230.5C82.5927 229.506 84.1871 227.528 82.7891 225.88C81.3912 224.233 78.2023 234.871 77.4996 234.908C76.7968 234.946 74.6583 229.499 73.812 228.957C72.9657 228.416 72.4669 230.695 71.2655 234.908C70.064 239.121 65.651 241.258 63.0893 244.267C60.5277 247.276 45.1199 263.639 41.3341 269.786C37.5483 275.932 14.1685 288.097 12.3549 289.406C23.4327 280.055 38.8707 266.836 43.1326 261.849C50.0014 253.814 59.568 244.267 59.568 244.267C58.9861 233.11 60.1725 222.54 59.1221 218.523C58.5781 216.424 57.6108 204.484 56.8552 200.813C55.019 191.432 47.0317 181.712 46.1325 177.882C45.2333 174.053 34.6919 157.75 39.8379 154.741C40.7735 154.155 41.8855 153.913 42.9814 154.057C41.8102 154.884 40.6691 156.073 41.7346 157.818C43.6313 160.873 45.7169 164.085 45.7169 167.463C45.7169 170.841 51.4976 175.595 53.7419 178.748C55.9862 181.9 53.893 180.786 55.3892 185.105C56.8854 189.423 58.6763 188.52 59.568 192.884C60.4596 197.247 65.4469 200.031 64.6535 205.47C63.8601 210.909 67.0414 218.478 67.0414 218.478C67.0414 218.478 69.6332 211.142 68.6887 207.193C67.7441 203.243 68.8398 198.263 67.933 196.924C67.1774 195.72 65.1069 187.55 64.1548 182.472C67.2681 187.384 70.3209 192.906 70.3209 192.906C71.5148 188.144 62.8475 171.179 60.4521 155.11C58.0567 139.04 51.1878 130.411 60.4521 129.418C61.2133 129.333 61.9839 129.4 62.719 129.614C66.6711 136.964 63.9205 142.403 63.044 145.593C62.0843 149.069 67.797 157.991 68.6433 164.138C69.399 169.878 70.9556 169.283 71.1597 169.178C70.9859 169.336 69.5123 170.833 70.404 175.091C71.3335 179.605 77.9605 190.326 77.9605 193.32C77.9605 196.314 77.4165 201.242 77.4165 202.701C77.4165 204.161 82.706 213.926 83.3408 216.484C83.9755 219.042 83.0914 211.556 84.5347 208.961C85.978 206.365 86.7412 197.307 86.9301 197.796C89.4162 204.086 86.5749 231.478 84.58 230.5Z" fill="#92E3A9"/>
<path opacity="0.4" d="M88.8646 163.272C87.1719 165.823 87.2172 185.729 84.3307 185.797C82.9327 185.797 82.2526 180.794 81.6859 174.512C83.1972 178.875 84.4062 182.389 84.4062 182.389C84.7009 174.204 82.1393 166.59 81.7161 159.172C81.5348 156.201 82.4718 144.291 81.2929 132.39C80.2804 122.346 80.7413 118.276 84.6858 117.486C85.517 120.165 87.5573 123.324 88.0787 126.258C88.789 130.306 87.3986 133.654 86.2047 134.158C85.0108 134.662 84.8067 137.272 86.3029 137.656C87.7991 138.04 86.3029 157.036 86.9981 159.473C87.6933 161.911 90.5648 160.76 88.8646 163.272Z" fill="#92E3A9"/>
<path opacity="0.4" d="M104.393 140.989C101.287 142.35 101.121 144.788 100.192 148.286C99.2623 151.784 101.522 156.893 100.192 164.92C98.8618 172.947 103.713 178.123 100.192 187.106C96.6704 196.088 98.3253 179.582 97.7359 172.059C97.5328 168.395 97.548 164.723 97.7812 161.06C98.212 165.401 98.5822 168.696 98.5822 168.696C98.5822 168.696 99.7762 158.728 98.8845 137.227C98.6805 132.517 98.9903 129.147 100.849 127.785C104.038 130.667 107.038 139.83 104.393 140.989Z" fill="#92E3A9"/>
<path d="M62.2581 315.421C62.2581 315.421 93.0509 277.625 100.23 272.539C107.408 267.453 114.587 265.099 118.599 259.75C122.612 254.401 137.294 241.589 138.488 239.505C139.682 237.421 144.171 223.435 148.954 215.431C153.737 207.426 161.876 196.623 162.11 195.193C163.153 188.641 146.415 188.347 139.387 203.529C139.387 203.529 129.073 218.703 127.577 219.004C126.08 219.305 123.874 218.402 123.874 218.402C123.874 218.402 119.96 204.597 119.06 193.35C118.161 182.103 113.378 167.809 113.378 159.496C113.378 151.183 111.436 129.11 105.459 127.5C99.4815 125.89 98.5747 129.967 98.8845 137.28C99.7762 158.781 98.5822 168.749 98.5822 168.749C98.5822 168.749 96.4891 150.069 96.4891 143.005C96.4891 135.941 94.0635 117.847 87.2248 117.426C80.9453 117.027 80.0688 120.541 81.2703 132.472C82.4718 144.404 81.5121 156.283 81.6934 159.255C82.1393 166.695 84.716 174.301 84.3836 182.472C84.3836 182.472 76.6079 160.06 76.0109 158.066C71.6811 143.456 68.6811 128.41 60.4596 129.313C51.1954 130.306 58.0718 138.935 60.4596 155.004C62.8475 171.074 71.5224 188.039 70.3284 192.801C70.3284 192.801 63.1573 179.838 59.5831 175.956C55.0492 171.074 48.203 149.798 39.8304 154.711C34.6844 157.72 45.2559 174.076 46.1476 177.905C47.0393 181.734 55.0341 191.447 56.8703 200.836C57.626 204.507 58.5705 216.446 59.1373 218.545C60.1876 222.563 59.0012 233.133 59.5831 244.289C59.5831 244.289 50.0165 253.814 43.1477 261.849C36.2788 269.883 0.392941 299.352 0.392941 299.352" stroke="#263238" stroke-linecap="round" stroke-linejoin="round"/>
<path d="M123.874 218.395C125.253 221.784 125.253 225.575 123.874 228.965" stroke="#263238" stroke-linecap="round" stroke-linejoin="round"/>
<path d="M126.39 219.027C127.248 219.654 127.884 220.536 128.205 221.546C128.527 222.556 128.519 223.642 128.181 224.646" stroke="#263238" stroke-linecap="round" stroke-linejoin="round"/>
<path d="M98.5822 168.697C98.5822 168.697 100.978 185.511 99.9273 188.633" stroke="#263238" stroke-linecap="round" stroke-linejoin="round"/>
<path d="M84.3836 182.389C84.6401 184.014 84.6401 185.669 84.3836 187.294" stroke="#263238" stroke-linecap="round" stroke-linejoin="round"/>
<path d="M70.336 192.801C70.336 192.801 70.7818 195.336 70.336 195.93" stroke="#263238" stroke-linecap="round" stroke-linejoin="round"/>
<path d="M146.113 207.087C146.113 207.087 148.818 208.547 149.702 210.661" stroke="#263238" stroke-linecap="round" stroke-linejoin="round"/>
<path d="M84.4818 137.227C85.3587 137.437 86.2744 137.423 87.1447 137.188C88.0149 136.953 88.8117 136.503 89.4615 135.88" stroke="#263238" stroke-linecap="round" stroke-linejoin="round"/>
<path d="M85.3961 161.406C85.3961 161.406 90.7764 163.189 92.7259 161.406" stroke="#263238" stroke-linecap="round" stroke-linejoin="round"/>
<path d="M102.92 166.613C102.92 166.613 106.501 165.273 108.897 166.018" stroke="#263238" stroke-linecap="round" stroke-linejoin="round"/>
<path d="M68.6887 171.375C68.6887 171.375 71.5299 167.651 73.7742 168.696" stroke="#263238" stroke-linecap="round" stroke-linejoin="round"/>
<path d="M57.029 182.389C57.029 182.389 54.49 183.577 53.7419 184.841" stroke="#263238" stroke-linecap="round" stroke-linejoin="round"/>
<path d="M59.568 244.267C60.1909 243.571 60.7427 242.815 61.2153 242.01C61.6611 241.115 61.0642 231.59 61.2153 225.459" stroke="#263238" stroke-linecap="round" stroke-linejoin="round"/>
<path d="M90.9275 281.762C87.4062 285.689 76.6079 292.806 72.278 297.117" stroke="#263238" stroke-linecap="round" stroke-linejoin="round"/>
<path d="M105.156 192.801C103.366 197.864 105.308 204.259 105.156 207.095C105.005 209.931 104.401 222.893 104.401 222.893" stroke="#263238" stroke-linecap="round" stroke-linejoin="round"/>
<path d="M88.8646 192.801C86.4767 196.818 87.2248 202.175 87.9729 204.838C88.721 207.501 88.056 218.38 88.056 218.38" stroke="#263238" stroke-linecap="round" stroke-linejoin="round"/>
<path d="M63.1573 205.598C62.9594 208.218 63.4819 210.842 64.6686 213.189" stroke="#263238" stroke-linecap="round" stroke-linejoin="round"/>
<path d="M77.953 197.713C76.6079 202.626 78.4064 204.853 78.5575 205.598" stroke="#263238" stroke-linecap="round" stroke-linejoin="round"/>
<path opacity="0.3" d="M199.363 165.274L196.817 150.558C196.704 149.905 196.726 149.235 196.88 148.59C197.034 147.944 197.318 147.337 197.714 146.803C198.11 146.27 198.61 145.822 199.184 145.486C199.759 145.15 200.395 144.933 201.056 144.848L206.761 144.096C206.761 144.096 204.857 140.252 210.985 129.05C217.114 117.847 246.577 88.0933 268.914 138.077C291.251 188.061 311.661 289.918 311.661 289.918C311.661 289.918 251.367 220.012 249.448 216.431C247.529 212.85 229.174 214.994 224.935 205.387C220.695 195.78 211.794 168.366 211.794 168.366L204.902 169.306C203.635 169.477 202.35 169.152 201.317 168.4C200.284 167.649 199.584 166.528 199.363 165.274Z" fill="black" fill-opacity="0.7"/>
<path d="M252.501 131.509L240.932 133.601L224.852 136.512L203.792 140.327C203.388 140.4 202.973 140.394 202.571 140.308C202.17 140.222 201.79 140.058 201.452 139.825C201.114 139.592 200.826 139.296 200.604 138.952C200.382 138.608 200.23 138.224 200.157 137.821L195.532 112.506C195.387 111.694 195.57 110.858 196.041 110.18C196.513 109.502 197.234 109.037 198.049 108.887L210.298 106.63L228.116 103.41L246.758 100.032C247.162 99.9587 247.576 99.965 247.978 100.051C248.379 100.137 248.76 100.301 249.098 100.534C249.435 100.767 249.723 101.063 249.946 101.407C250.168 101.751 250.32 102.135 250.393 102.538L255.017 127.853C255.097 128.258 255.095 128.675 255.011 129.079C254.927 129.483 254.763 129.866 254.529 130.207C254.295 130.547 253.995 130.837 253.647 131.061C253.298 131.285 252.909 131.437 252.501 131.509Z" fill="#92E3A9"/>
<mask id="mask0_49_338" style="mask-type:luminance" maskUnits="userSpaceOnUse" x="195" y="99" width="61" height="42">
<path d="M252.501 131.509L240.932 133.601L224.852 136.512L203.792 140.327C203.388 140.4 202.973 140.394 202.571 140.308C202.17 140.222 201.79 140.058 201.452 139.825C201.114 139.592 200.826 139.296 200.604 138.952C200.382 138.608 200.23 138.224 200.157 137.821L195.532 112.506C195.387 111.694 195.57 110.858 196.041 110.18C196.513 109.502 197.234 109.037 198.049 108.887L210.298 106.63L228.116 103.41L246.758 100.032C247.162 99.9587 247.576 99.965 247.978 100.051C248.379 100.137 248.76 100.301 249.098 100.534C249.435 100.767 249.723 101.063 249.946 101.407C250.168 101.751 250.32 102.135 250.393 102.538L255.017 127.853C255.097 128.258 255.095 128.675 255.011 129.079C254.927 129.483 254.763 129.866 254.529 130.207C254.295 130.547 253.995 130.837 253.647 131.061C253.298 131.285 252.909 131.437 252.501 131.509Z" fill="white"/>
</mask>
<g mask="url(#mask0_49_338)">
<path opacity="0.3" d="M244.317 114.703L240.932 133.601L224.852 136.512C220.197 134.474 212.519 130.923 210.985 128.989C209.157 126.732 209.414 113.431 210.298 106.63L228.116 103.41C234.395 107.721 244.317 114.703 244.317 114.703Z" fill="black" fill-opacity="0.7"/>
<path opacity="0.3" d="M206.988 139.747L203.792 140.327C203.388 140.401 202.973 140.394 202.571 140.308C202.17 140.222 201.79 140.058 201.452 139.825C201.114 139.593 200.826 139.296 200.604 138.952C200.382 138.608 200.23 138.224 200.157 137.822L195.532 112.506C195.387 111.694 195.57 110.858 196.041 110.18C196.513 109.502 197.234 109.037 198.049 108.887L201.237 108.308C200.423 108.458 199.702 108.923 199.232 109.601C198.762 110.28 198.581 111.116 198.729 111.927L203.353 137.242C203.426 137.645 203.578 138.029 203.8 138.373C204.022 138.716 204.311 139.013 204.648 139.246C204.986 139.479 205.366 139.643 205.768 139.729C206.169 139.815 206.584 139.821 206.988 139.747Z" fill="black" fill-opacity="0.7"/>
</g>
<path d="M252.501 131.509L240.932 133.601L224.852 136.512L203.792 140.327C203.388 140.4 202.973 140.394 202.571 140.308C202.17 140.222 201.79 140.058 201.452 139.825C201.114 139.592 200.826 139.296 200.604 138.952C200.382 138.608 200.23 138.224 200.157 137.821L195.532 112.506C195.387 111.694 195.57 110.858 196.041 110.18C196.513 109.502 197.234 109.037 198.049 108.887L210.298 106.63L228.116 103.41L246.758 100.032C247.162 99.9587 247.576 99.965 247.978 100.051C248.379 100.137 248.76 100.301 249.098 100.534C249.435 100.767 249.723 101.063 249.946 101.407C250.168 101.751 250.32 102.135 250.393 102.538L255.017 127.853C255.097 128.258 255.095 128.675 255.011 129.079C254.927 129.483 254.763 129.866 254.529 130.207C254.295 130.547 253.995 130.837 253.647 131.061C253.298 131.285 252.909 131.437 252.501 131.509Z" stroke="#263238" stroke-linecap="round" stroke-linejoin="round"/>
<path d="M249.057 98.6951L200.544 107.566C198.851 107.876 197.731 109.494 198.042 111.179L202.692 136.387C203.003 138.072 204.628 139.188 206.321 138.878L254.834 130.007C256.527 129.697 257.647 128.08 257.336 126.394L252.686 101.187C252.375 99.5011 250.75 98.3855 249.057 98.6951Z" stroke="#263238" stroke-width="0.996394" stroke-linecap="round" stroke-linejoin="round"/>
<path d="M247.7 101.739L201.984 110.011C201.162 110.159 200.618 110.943 200.767 111.76L205.32 136.705C205.469 137.522 206.256 138.065 207.077 137.916L252.794 129.645C253.615 129.496 254.16 128.713 254.01 127.895L249.457 102.951C249.308 102.133 248.521 101.591 247.7 101.739Z" stroke="#263238" stroke-linecap="round" stroke-linejoin="round"/>
<path d="M255.697 130.93L252.523 131.502C253.334 131.35 254.051 130.885 254.519 130.209C254.986 129.532 255.165 128.699 255.017 127.891L250.393 102.575C250.32 102.173 250.168 101.789 249.946 101.445C249.723 101.101 249.435 100.804 249.098 100.571C248.76 100.339 248.379 100.175 247.978 100.089C247.576 100.003 247.162 99.9962 246.758 100.07L249.954 99.4907C250.77 99.3458 251.609 99.5279 252.29 99.9973C252.971 100.467 253.438 101.185 253.589 101.996L258.214 127.311C258.359 128.123 258.176 128.959 257.705 129.637C257.233 130.315 256.512 130.78 255.697 130.93Z" stroke="#263238" stroke-linecap="round" stroke-linejoin="round"/>
<path d="M347.607 212.023L316.316 295.59C316.316 295.59 303.228 270.764 291.137 247.788C281.48 229.416 272.458 212.188 271.241 209.653C268.513 203.943 259.196 191.981 259.196 191.981C259.196 191.981 249.637 186.534 245.262 177.047C240.886 167.561 236.073 133.624 236.073 133.624C236.073 133.624 223.506 128.914 220.507 126.853C217.507 124.791 214.771 105.743 214.771 103.568C214.771 101.394 217.794 97.0384 217.794 97.0384C217.794 97.0384 217.121 93.8485 220.96 90.6286C222.215 89.6031 223.606 88.755 225.093 88.1084H225.169C225.169 88.1084 224.67 80.9087 228.433 78.8097C228.613 78.7085 228.8 78.6205 228.993 78.5464C232.348 77.2599 243.35 75.5973 243.35 75.5973C244.905 74.2367 246.716 73.196 248.677 72.5354C250.627 72.0012 261.327 74.4764 267.304 75.9434C269.707 76.5302 271.347 76.9515 271.347 76.9515C271.347 76.9515 281.457 77.4104 283.369 78.5464C284.703 79.4169 285.921 80.4506 286.996 81.6234L287.185 81.8416C287.185 81.8416 296.2 83.7073 298.112 86.9949C300.024 90.2826 300.84 106.593 299.48 117.193C298.119 127.793 300.56 145.781 300.56 145.781C300.56 145.781 303.379 159.676 305.563 164.95C307.746 170.224 347.607 212.023 347.607 212.023Z" fill="white"/>
<path opacity="0.4" d="M291.137 247.788C281.48 229.416 272.458 212.188 271.241 209.653C268.513 203.943 259.196 191.981 259.196 191.981C259.196 191.981 249.637 186.534 245.262 177.047C240.886 167.56 236.073 133.623 236.073 133.623C236.073 133.623 223.506 128.914 220.507 126.853C217.507 124.791 214.771 105.743 214.771 103.568C214.771 101.394 217.794 97.0382 217.794 97.0382C217.794 97.0382 217.121 93.8484 220.96 90.6285C220.96 91.4861 220.96 92.9306 220.96 95.2026C220.869 99.5133 225.97 125.506 227.232 124.716C228.494 123.926 230.443 122.023 229.93 120.345C229.93 120.345 227.459 110.256 225.124 88.1082H225.199C225.199 88.1082 224.7 80.9085 228.464 78.8096C227.816 80.3686 227.401 82.0135 227.232 83.6921C227.149 87.1979 231.335 117.238 232.975 117.998C234.615 118.758 238.771 114.755 238.771 114.755C238.771 114.755 237.35 106.232 237.856 102.598C237.856 102.598 250.498 110.271 250.876 118.983C250.914 119.939 253.34 133.593 253.34 133.593C253.34 133.593 242.466 154.207 253.566 173.015C253.566 173.015 247.922 169.644 246.577 164.288C246.577 164.288 244.937 180.041 256.596 188.362C256.596 188.362 264.962 180.184 273.221 179.146C273.221 179.146 273.372 179.688 267.841 184.029C262.309 188.37 261.561 190.303 261.561 190.303C261.561 190.303 267.546 184.284 272.329 184.029C272.329 184.029 267.395 189.709 267.546 190.897C267.697 192.086 281.654 215.844 286.732 232.418C288.802 239.339 290.215 244.334 291.137 247.788Z" fill="#92E3A9"/>
<path opacity="0.4" d="M251.949 90.1169C251.949 90.1169 255.977 93.1262 257.171 90.1169C257.856 88.5066 258.292 86.8019 258.463 85.0613C258.463 85.0613 260.012 84.3541 261.486 88.0706C262.959 91.787 277.732 92.7349 281.193 94.6383C284.654 96.5417 286.029 94.6383 286.029 94.6383C286.835 95.2979 287.388 96.2141 287.595 97.2324C287.801 98.2507 287.649 99.3087 287.163 100.228C285.485 103.681 290.238 103.99 292.082 101.447C293.926 98.9039 292.497 108.722 287.941 109.722C287.941 109.722 288.069 114.01 285.137 116.952H287.623C287.623 116.952 281.004 122.181 279.243 122.467C277.483 122.752 285.795 125.679 284.253 126.296C282.712 126.913 278.344 126.86 278.344 126.86C278.344 126.86 281.17 128.809 281.193 130.095C281.216 131.381 279.855 132.352 279.243 131.276C278.631 130.2 273.75 114.793 271.317 109.098C268.883 103.403 258.833 98.8964 251.949 90.1169Z" fill="#92E3A9"/>
<path opacity="0.4" d="M286.989 81.5706C278.51 79.261 267.138 75.9734 267.138 75.9734L267.296 75.8906C269.699 76.4774 271.339 76.8987 271.339 76.8987C271.339 76.8987 281.45 77.3576 283.362 78.4936C284.695 79.3641 285.914 80.3979 286.989 81.5706Z" fill="#92E3A9"/>
<path d="M275.065 94.849C267.689 93.3444 262.423 99.6187 262.423 99.6187C262.423 99.6187 269.752 106.224 271.377 109.06C273.002 111.897 275.699 121.458 275.699 121.458C278.79 121.955 284.488 118.78 285.855 110.354C287.223 101.928 282.402 96.3461 275.065 94.849Z" fill="#92E3A9"/>
<path d="M316.316 295.59C316.316 295.59 273.999 215.363 271.241 209.653C268.483 203.943 259.196 191.981 259.196 191.981C259.196 191.981 249.637 186.534 245.262 177.047C240.886 167.561 236.073 133.623 236.073 133.623C236.073 133.623 223.506 128.914 220.507 126.853C217.507 124.791 214.771 105.743 214.771 103.568C214.771 101.394 217.794 97.0383 217.794 97.0383C217.794 97.0383 216.706 91.8849 225.169 88.0707C225.169 88.0707 224.625 80.1788 228.993 78.5087C232.348 77.2222 243.35 75.5596 243.35 75.5596C244.905 74.199 246.716 73.1583 248.677 72.4977C251.405 71.7454 271.347 76.9138 271.347 76.9138C271.347 76.9138 281.457 77.3727 283.369 78.5087C284.767 79.4269 286.04 80.5219 287.155 81.7662C287.155 81.7662 296.17 83.632 298.082 86.9196C299.993 90.2072 300.81 106.517 299.449 117.118C298.089 127.718 300.53 145.706 300.53 145.706C300.53 145.706 303.349 159.601 305.532 164.875C307.716 170.149 347.607 212.023 347.607 212.023" stroke="#263238" stroke-linecap="round" stroke-linejoin="round"/>
<path d="M280.49 132.518C280.49 132.518 278.578 132.111 276.122 123.136C273.667 114.161 273.017 109.963 267.924 104.644C264.312 100.883 256.045 94.7363 251.949 90.1171C247.854 85.4979 243.327 81.7664 239.791 84.6252C236.965 86.8821 235.121 92.7427 237.607 101.786C240.803 113.401 250.884 118.931 250.884 118.931L253.347 133.541C253.347 133.541 242.655 154.862 254.707 174.986" stroke="#263238" stroke-linecap="round" stroke-linejoin="round"/>
<path d="M262.385 99.6187C262.385 99.6187 267.674 93.3519 275.027 94.849C282.379 96.3461 287.155 101.921 285.817 110.354C284.48 118.788 278.752 121.955 275.662 121.458" stroke="#263238" stroke-linecap="round" stroke-linejoin="round"/>
<path d="M243.327 75.5447C242.223 78.3086 241.373 81.1666 240.788 84.0835" stroke="#263238" stroke-linecap="round" stroke-linejoin="round"/>
<path d="M238.854 105.005C238.854 105.005 239.489 114.296 240.803 117.148C242.118 119.999 244.302 122.316 245.254 125.988C246.206 129.659 246.35 135.369 246.622 136.189C246.894 137.009 248.473 137.22 248.473 137.22C250.74 137.272 251.654 136.099 252.962 134.308" stroke="#263238" stroke-linecap="round" stroke-linejoin="round"/>
<path d="M225.192 88.0557C225.192 88.0557 227.239 107.902 228.879 116.335C230.519 124.769 233.413 125.988 238.166 128.711C242.919 131.434 245.541 136.986 245.957 137.821C246.372 138.657 247.929 138.747 247.929 138.747C248.844 138.671 249.725 138.369 250.493 137.869C251.261 137.368 251.891 136.685 252.327 135.88" stroke="#263238" stroke-linecap="round" stroke-linejoin="round"/>
<path d="M217.801 97.0232C217.287 97.8131 221.67 117.968 223.952 123.813C226.234 129.659 226.491 130.584 232.529 132.239C238.567 133.894 243.153 136.648 244.786 135.677" stroke="#263238" stroke-linecap="round" stroke-linejoin="round"/>
<path d="M259.732 85.874C259.732 85.874 262.868 93.3521 260.798 98.2722" stroke="#263238" stroke-linecap="round" stroke-linejoin="round"/>
<path d="M271.339 76.8987C276.478 78.9214 281.766 80.5487 287.155 81.7662" stroke="#263238" stroke-linecap="round" stroke-linejoin="round"/>
<path d="M292.104 102.741C292.104 102.741 289.702 107.112 286.059 108.052" stroke="#263238" stroke-linecap="round" stroke-linejoin="round"/>
<path d="M286.052 97.9788C286.052 97.9788 285.19 100.236 284.276 100.86" stroke="#263238" stroke-linecap="round" stroke-linejoin="round"/>
<path d="M289.074 115.929C289.074 115.929 283.611 120.044 278.367 121.112" stroke="#263238" stroke-linecap="round" stroke-linejoin="round"/>
<path d="M276.122 123.144C276.122 123.144 278.389 125.995 284.276 126.266" stroke="#263238" stroke-linecap="round" stroke-linejoin="round"/>
<path d="M258.44 110.663C258.44 110.663 263.79 105.547 266.843 106.254" stroke="#263238" stroke-linecap="round" stroke-linejoin="round"/>
<path d="M268.914 111.701C268.914 111.701 264.863 114.71 264.123 114.71" stroke="#263238" stroke-linecap="round" stroke-linejoin="round"/>
<path d="M227.209 127.658C227.209 127.658 228.554 127.906 229.605 126.288" stroke="#263238" stroke-linecap="round" stroke-linejoin="round"/>
<path d="M231.992 120.33C231.992 120.33 235.242 118.329 237.365 117.945" stroke="#263238" stroke-linecap="round" stroke-linejoin="round"/>
<path d="M260.617 188.189C261.289 187.595 267.569 182.539 271.453 180.749" stroke="#263238" stroke-linecap="round" stroke-linejoin="round"/>
<path d="M268.762 185.797C268.317 185.661 264.75 189.378 262.868 190.867" stroke="#263238" stroke-linecap="round" stroke-linejoin="round"/>
<path d="M270.531 196.818C270.531 196.818 282.493 219.388 285.183 228.415" stroke="#263238" stroke-linecap="round" stroke-linejoin="round"/>
<path d="M305.563 164.905C306.575 170.449 309.862 174.534 311.661 176.746" stroke="#263238" stroke-linecap="round" stroke-linejoin="round"/>
<path opacity="0.4" d="M267.856 97.0233C266.118 98.0916 267.946 101.582 268.914 103.365C269.881 105.148 274.203 107.985 275.102 110.663C276.002 113.341 281.684 113.266 283.415 110.663C285.145 108.06 284.926 102.861 280.211 98.9041C275.495 94.9469 270.327 95.5186 267.856 97.0233Z" fill="white"/>
<path d="M234.675 246.953C226.979 245.65 219.067 246.982 212.23 250.732C205.392 254.481 200.032 260.426 197.023 267.597C194.015 274.768 193.535 282.743 195.663 290.22C197.791 297.698 202.401 304.236 208.741 308.771" stroke="#263238" stroke-linecap="round" stroke-linejoin="round"/>
<path d="M249.07 252.949C245.866 250.645 242.288 248.91 238.491 247.818" stroke="#263238" stroke-linecap="round" stroke-linejoin="round"/>
<path d="M245.594 310.907C250.252 308.34 254.249 304.735 257.275 300.374C260.3 296.013 262.271 291.015 263.034 285.769C263.796 280.524 263.329 275.174 261.67 270.138C260.01 265.102 257.203 260.517 253.468 256.74" stroke="#263238" stroke-linecap="round" stroke-linejoin="round"/>
<path d="M247.257 321.755L249.32 323.561L246.108 312.63" stroke="#263238" stroke-linecap="round" stroke-linejoin="round"/>
<path d="M223.083 314.729C228.164 315.597 233.375 315.316 238.332 313.909L244.839 319.627" stroke="#263238" stroke-linecap="round" stroke-linejoin="round"/>
<path d="M215.164 312.397C216.454 312.95 217.776 313.425 219.124 313.819" stroke="#263238" stroke-linecap="round" stroke-linejoin="round"/>
<path d="M231.607 264.121C235.887 264.849 239.738 267.146 242.403 270.56C245.067 273.973 246.351 278.256 246.003 282.565C245.654 286.874 243.698 290.898 240.519 293.843C237.341 296.788 233.17 298.442 228.828 298.479C224.486 298.516 220.287 296.934 217.058 294.044C213.829 291.153 211.804 287.164 211.381 282.862C210.958 278.559 212.168 274.255 214.773 270.796C217.378 267.338 221.189 264.975 225.456 264.173" stroke="#263238" stroke-linecap="round" stroke-linejoin="round"/>
<path d="M225.456 300.074C220.423 299.22 215.937 296.411 212.984 292.265C210.03 288.118 208.852 282.974 209.708 277.963" stroke="#263238" stroke-linecap="round" stroke-linejoin="round"/>
<path d="M246.796 287.691C245.611 290.954 243.559 293.835 240.859 296.029C238.159 298.223 234.912 299.647 231.463 300.149" stroke="#263238" stroke-linecap="round" stroke-linejoin="round"/>
<path d="M211.189 273.178C213.14 268.955 216.566 265.581 220.83 263.685C225.093 261.789 229.903 261.5 234.365 262.872C238.826 264.244 242.634 267.184 245.081 271.143C247.528 275.103 248.446 279.812 247.665 284.395" stroke="#263238" stroke-linecap="round" stroke-linejoin="round"/>
<path d="M240.237 274.27L240.456 274.036" stroke="#263238" stroke-width="2" stroke-linecap="round" stroke-linejoin="round"/>
<path d="M237.154 277.579L238.688 275.932" stroke="#263238" stroke-width="2" stroke-linecap="round" stroke-linejoin="round"/>
<path d="M218.338 280.002L225.751 289.82L235.808 279.024" stroke="#263238" stroke-width="2" stroke-linecap="round" stroke-linejoin="round"/>
</g>
<defs>
<clipPath id="clip0_49_338">
<rect width="348" height="323" fill="white" transform="translate(0 0.937256)"/>
</clipPath>
</defs>
</svg>
